<svg preserveAspectRatio="none" width="100%" height="100%" overflow="visible" style="display: block;" viewBox="0 0 29.1667 29.1667" fill="none" xmlns="http://www.w3.org/2000/svg">
<path id="Vector" d="M28.6917 5.98541C28.3667 3.06666 26.1021 0.8 23.1812 0.475C17.4771 -0.158333 11.6917 -0.158333 5.98541 0.475C3.06666 0.8 0.8 3.06457 0.475 5.98541C-0.158333 11.6896 -0.158333 17.475 0.475 23.1812C0.8 26.1 3.06457 28.3667 5.98541 28.6917C8.83749 29.0083 11.7104 29.1667 14.5833 29.1667C17.4562 29.1667 20.3292 29.0083 23.1812 28.6917C26.1 28.3667 28.3667 26.1021 28.6917 23.1812C29.325 17.4771 29.325 11.6917 28.6917 5.98541ZM20.8354 14.5833C20.8354 15.0437 20.5812 15.4688 20.175 15.6854C19.9896 15.7833 19.7875 15.8333 19.5854 15.8333C19.3437 15.8333 19.1021 15.7625 18.8917 15.6229L14.5854 12.7521L10.2792 15.6229C9.89583 15.8792 9.40208 15.9021 8.99583 15.6854C8.58958 15.4688 8.33541 15.0437 8.33541 14.5833V2.76041C12.4917 2.41458 16.6792 2.41458 20.8354 2.76041V14.5833Z" fill="var(--fill-0, #0F61FF)"/>
</svg>
