<svg preserveAspectRatio="none" width="100%" height="100%" overflow="visible" style="display: block;" viewBox="0 0 11.3736 10.7939" fill="none" xmlns="http://www.w3.org/2000/svg">
<path id="Vector" d="M11.2683 7.57166C10.4465 5.01302 9.11214 2.70667 7.30162 0.714587C6.88891 0.260316 6.29974 0 5.68578 0C5.07182 0 4.48266 0.260317 4.06922 0.715317C2.26088 2.70521 0.926509 5.01156 0.104009 7.57166C-0.0833865 8.155 -0.0155735 8.79448 0.291406 9.32604C0.598385 9.85834 1.11974 10.2375 1.72057 10.368C1.7213 10.368 1.72276 10.368 1.72349 10.368C3.03817 10.6524 4.36161 10.7939 5.68578 10.7939C7.01068 10.7939 8.3363 10.6517 9.65318 10.3673C10.254 10.2375 10.7754 9.85761 11.0823 9.32531C11.3886 8.79448 11.4571 8.155 11.2697 7.57093L11.2683 7.57166ZM5.99495 8.33C5.97453 8.35042 5.95265 8.36865 5.92859 8.38469C5.90526 8.40073 5.87974 8.41386 5.85276 8.4248C5.82651 8.43573 5.7988 8.44448 5.7711 8.44958C5.74266 8.45542 5.71422 8.45833 5.68578 8.45833C5.57057 8.45833 5.45828 8.41167 5.37661 8.33C5.3562 8.30958 5.33797 8.28771 5.32193 8.26364C5.30588 8.24031 5.29276 8.2148 5.28182 8.18782C5.27089 8.16157 5.26213 8.13386 5.25703 8.10615C5.2512 8.07771 5.24828 8.04927 5.24828 8.02083C5.24828 7.9924 5.2512 7.96396 5.25703 7.93552C5.26286 7.90781 5.27089 7.8801 5.28182 7.85385C5.29276 7.8276 5.30661 7.80209 5.32193 7.77802C5.33797 7.75396 5.3562 7.73208 5.37661 7.71167C5.47797 7.61031 5.62891 7.56365 5.77183 7.59208C5.79953 7.59792 5.82724 7.60594 5.85349 7.61687C5.87974 7.62781 5.90526 7.64094 5.92932 7.65698C5.95338 7.67302 5.97599 7.69125 5.99568 7.71167C6.01609 7.73208 6.03432 7.75396 6.05036 7.77802C6.0664 7.80209 6.07953 7.82687 6.09047 7.85385C6.10141 7.8801 6.11016 7.90781 6.11526 7.93552C6.12109 7.96396 6.12401 7.9924 6.12401 8.02083C6.12401 8.13604 6.07734 8.24906 5.99568 8.33H5.99495ZM6.12328 6.27083C6.12328 6.51219 5.92713 6.70833 5.68578 6.70833C5.44443 6.70833 5.24828 6.51219 5.24828 6.27083V3.9375C5.24828 3.69615 5.44443 3.5 5.68578 3.5C5.92713 3.5 6.12328 3.69615 6.12328 3.9375V6.27083Z" fill="var(--fill-0, #D92626)"/>
</svg>
