<svg preserveAspectRatio="none" width="100%" height="100%" overflow="visible" style="display: block;" viewBox="0 0 9 9" fill="none" xmlns="http://www.w3.org/2000/svg">
<g id="Vector">
<mask id="path-1-inside-1_0_368" fill="white">
<path d="M8.5 4H5V0.5C5 0.224167 4.77583 0 4.5 0C4.22417 0 4 0.224167 4 0.5V4H0.5C0.224167 4 0 4.22417 0 4.5C0 4.77583 0.224167 5 0.5 5H4V8.5C4 8.77583 4.22417 9 4.5 9C4.77583 9 5 8.77583 5 8.5V5H8.5C8.77583 5 9 4.77583 9 4.5C9 4.22417 8.77583 4 8.5 4Z"/>
</mask>
<path d="M8.5 4H5V0.5C5 0.224167 4.77583 0 4.5 0C4.22417 0 4 0.224167 4 0.5V4H0.5C0.224167 4 0 4.22417 0 4.5C0 4.77583 0.224167 5 0.5 5H4V8.5C4 8.77583 4.22417 9 4.5 9C4.77583 9 5 8.77583 5 8.5V5H8.5C8.77583 5 9 4.77583 9 4.5C9 4.22417 8.77583 4 8.5 4Z" fill="var(--fill-0, black)"/>
<path d="M5 4H4V5H5V4ZM4 4V5H5V4H4ZM4 5H5V4H4V5ZM5 5V4H4V5H5ZM8.5 4V3H5V4V5H8.5V4ZM5 4H6V0.5H5H4V4H5ZM5 0.5H6C6 -0.328118 5.32812 -1 4.5 -1V0V1C4.22355 1 4 0.776451 4 0.5H5ZM4.5 0V-1C3.67188 -1 3 -0.328118 3 0.5H4H5C5 0.776451 4.77645 1 4.5 1V0ZM4 0.5H3V4H4H5V0.5H4ZM4 4V3H0.5V4V5H4V4ZM0.5 4V3C-0.328118 3 -1 3.67188 -1 4.5H0H1C1 4.77645 0.776451 5 0.5 5V4ZM0 4.5H-1C-1 5.32812 -0.328118 6 0.5 6V5V4C0.776451 4 1 4.22355 1 4.5H0ZM0.5 5V6H4V5V4H0.5V5ZM4 5H3V8.5H4H5V5H4ZM4 8.5H3C3 9.32812 3.67188 10 4.5 10V9V8C4.77645 8 5 8.22355 5 8.5H4ZM4.5 9V10C5.32812 10 6 9.32812 6 8.5H5H4C4 8.22355 4.22355 8 4.5 8V9ZM5 8.5H6V5H5H4V8.5H5ZM5 5V6H8.5V5V4H5V5ZM8.5 5V6C9.32812 6 10 5.32812 10 4.5H9H8C8 4.22355 8.22355 4 8.5 4V5ZM9 4.5H10C10 3.67188 9.32812 3 8.5 3V4V5C8.22355 5 8 4.77645 8 4.5H9Z" fill="var(--stroke-0, #0F61FF)" mask="url(#path-1-inside-1_0_368)"/>
</g>
</svg>
