<svg preserveAspectRatio="none" width="100%" height="100%" overflow="visible" style="display: block;" viewBox="0 0 11.6667 12.9992" fill="none" xmlns="http://www.w3.org/2000/svg">
<path id="Vector" d="M4.87402 0.0419922H6.79297C7.61614 0.0422037 8.33078 0.600608 8.53027 1.39941L8.85059 2.67871L8.8584 2.70996H11.1035C11.1252 2.70913 11.1463 2.70801 11.167 2.70801C11.4197 2.70818 11.625 2.91428 11.625 3.16699V3.16797C11.6247 3.42047 11.4195 3.6258 11.167 3.62598H11.1328C10.6665 3.64435 10.2921 4.02817 10.292 4.49902V10.499C10.292 11.8543 9.18833 12.957 7.83301 12.957H3.83301C2.47784 12.9569 1.375 11.8542 1.375 10.499V4.49902C1.37492 4.02819 1.00043 3.64437 0.53418 3.62598H0.5C0.247335 3.62598 0.0422457 3.42058 0.0419922 3.16797V3.16699L0.0507812 3.07422C0.0936198 2.86557 0.278823 2.70801 0.5 2.70801C0.509898 2.70801 0.520283 2.70856 0.53125 2.70898C0.541854 2.70939 0.553788 2.70996 0.56543 2.70996H2.80859L2.81641 2.67871L3.13672 1.39941C3.33624 0.599697 4.0507 0.0420566 4.87402 0.0419922ZM2.09668 3.6875C2.22118 3.93175 2.29199 4.20779 2.29199 4.5V10.5C2.29199 11.3504 2.98265 12.0418 3.83301 12.042H7.83301C8.68267 12.042 9.375 11.3505 9.375 10.5V4.54199H9.37598V4.5C9.37598 4.20772 9.44673 3.9318 9.57129 3.6875L9.60254 3.62695H2.06543L2.09668 3.6875ZM4.5 5.375C4.75271 5.375 4.95783 5.58034 4.95801 5.83301V9.83301C4.95801 10.0858 4.75282 10.292 4.5 10.292C4.24718 10.292 4.04199 10.0858 4.04199 9.83301V5.83301C4.04217 5.58034 4.24729 5.375 4.5 5.375ZM7.16699 5.375C7.41956 5.37518 7.62482 5.58044 7.625 5.83301V9.83301C7.625 10.0857 7.41966 10.2918 7.16699 10.292C6.91417 10.292 6.70801 10.0858 6.70801 9.83301V5.83301C6.70818 5.58034 6.91428 5.375 7.16699 5.375ZM4.87402 0.958008C4.47178 0.958072 4.12267 1.23116 4.02539 1.62109L3.7666 2.6582L3.75293 2.70996H7.91309L7.90039 2.6582L7.6416 1.62109C7.54438 1.23122 7.1951 0.958219 6.79297 0.958008H4.87402Z" fill="var(--fill-0, #0F61FF)" stroke="var(--stroke-0, #0F61FF)" stroke-width="0.0833333"/>
</svg>
