<svg preserveAspectRatio="none" width="100%" height="100%" overflow="visible" style="display: block;" viewBox="0 0 11.6658 10.9996" fill="none" xmlns="http://www.w3.org/2000/svg">
<g id="Vector">
<path d="M11.1667 4.66708C10.8908 4.66708 10.6667 4.89125 10.6667 5.16708C10.6667 6.36458 10.6 7.57542 10.4675 8.76542V8.77459C10.4058 9.31792 9.98417 9.73958 9.44 9.80042H9.43167C7.04417 10.0662 4.6225 10.0662 2.235 9.80125H2.22584C1.6825 9.73958 1.26083 9.31792 1.2 8.77459V8.76542C1.06667 7.57542 1 6.36542 1 5.16792C1 4.89208 0.775833 4.66792 0.5 4.66792C0.224167 4.66792 0 4.89208 0 5.16792C0 6.40208 0.069166 7.64958 0.204999 8.87542V8.88458C0.318333 9.89625 1.10333 10.6813 2.115 10.7938H2.12417C3.355 10.9313 4.59333 10.9996 5.8325 10.9996C7.07167 10.9996 8.31083 10.9313 9.54167 10.7946H9.55C10.5617 10.6813 11.3467 9.89625 11.4592 8.88458V8.87542C11.5967 7.64875 11.6658 6.40125 11.6658 5.16708C11.6658 4.89125 11.4417 4.66708 11.1658 4.66708H11.1667Z" fill="var(--fill-0, #1D2539)"/>
<path d="M3.52 3.52042L5.33333 1.70708V7.83292C5.33333 8.10875 5.5575 8.33292 5.83333 8.33292C6.10917 8.33292 6.33333 8.10875 6.33333 7.83292V1.70708L8.14667 3.52042C8.24417 3.61792 8.3725 3.66708 8.5 3.66708C8.6275 3.66708 8.75583 3.61792 8.85333 3.52042C9.04833 3.32542 9.04833 3.00875 8.85333 2.81292L6.18667 0.14625C5.99167 -0.04875 5.675 -0.04875 5.47917 0.14625L2.8125 2.81292C2.6175 3.00792 2.6175 3.32458 2.8125 3.52042C3.0075 3.71625 3.32417 3.71542 3.52 3.52042Z" fill="var(--fill-0, #1D2539)"/>
</g>
</svg>
