<svg preserveAspectRatio="none" width="100%" height="100%" overflow="visible" style="display: block;" viewBox="0 0 11.6658 10.9996" fill="none" xmlns="http://www.w3.org/2000/svg">
<path id="Vector" d="M5.50879 0.175781C5.68841 -0.00295678 5.97857 -0.00287621 6.15723 0.175781L8.82422 2.84277C9.00262 3.0224 9.00272 3.31266 8.82422 3.49121C8.73481 3.58062 8.61685 3.625 8.5 3.625C8.38315 3.625 8.26519 3.58062 8.17578 3.49121L6.36328 1.67773L6.29199 1.60645V7.83301C6.29194 8.08579 6.0858 8.29102 5.83301 8.29102C5.58037 8.29084 5.37505 8.08568 5.375 7.83301V1.60645L3.49023 3.49121C3.31052 3.6698 3.02028 3.67046 2.8418 3.49121C2.66306 3.31169 2.66339 3.02148 2.8418 2.84277L5.50879 0.175781ZM0.246094 8.87109C0.110431 7.6468 0.0419941 6.40058 0.0419922 5.16797C0.0419922 4.91515 0.247179 4.70996 0.5 4.70996C0.752821 4.70996 0.958008 4.91515 0.958008 5.16797C0.958009 6.0672 0.996197 6.97345 1.07129 7.87305L1.1582 8.77051V8.7793C1.21728 9.30679 1.6054 9.72349 2.11719 9.82617L2.2207 9.84277H2.23047L3.12793 9.92969C4.92652 10.079 6.73949 10.0784 8.53809 9.92871L9.43652 9.8418H9.44043V9.84277L9.44434 9.8418C9.97274 9.78273 10.3896 9.3948 10.4922 8.88281L10.5088 8.7793V8.77051C10.6415 7.57896 10.708 6.36602 10.708 5.16699C10.7081 4.91443 10.9135 4.70934 11.166 4.70898C11.4187 4.70908 11.624 4.91427 11.624 5.16699C11.624 6.39962 11.5553 7.64598 11.418 8.87109V8.87988C11.3076 9.87218 10.5373 10.6418 9.54492 10.7529H9.53711C8.30781 10.8894 7.06967 10.958 5.83203 10.958C4.59458 10.958 3.35801 10.8893 2.12891 10.752H2.11914C1.1287 10.6416 0.360173 9.8746 0.24707 8.88477V8.875L0.246094 8.87109Z" fill="var(--fill-0, #0F61FF)" stroke="var(--stroke-0, #0F61FF)" stroke-width="0.0833333"/>
</svg>
