<svg preserveAspectRatio="none" width="100%" height="100%" overflow="visible" style="display: block;" viewBox="0 0 6.60014 6.21581" fill="none" xmlns="http://www.w3.org/2000/svg">
<path id="Vector" d="M5.90001 0.524367C5.40375 0.0766037 4.82086 -0.0924309 4.25963 0.0483486C3.87354 0.14534 3.54113 0.379813 3.30007 0.715989C3.059 0.379813 2.72659 0.14534 2.34051 0.0483486C1.77927 -0.0924309 1.19685 0.0766037 0.70012 0.524367C-0.12337 1.26687 -0.234486 2.68314 0.441632 3.81832C1.6093 5.77935 3.16494 6.19086 3.23086 6.20734C3.25346 6.21299 3.27653 6.21581 3.30007 6.21581C3.32314 6.21581 3.34668 6.21299 3.36928 6.20734C3.4352 6.19086 4.99084 5.77935 6.15851 3.81832C6.83462 2.68267 6.7235 1.26687 5.90001 0.524367Z" fill="var(--fill-0, white)"/>
</svg>
