<svg preserveAspectRatio="none" width="100%" height="100%" overflow="visible" style="display: block;" viewBox="0 0 13.5833 12.7893" fill="none" xmlns="http://www.w3.org/2000/svg">
<path id="Subtract" d="M0.708521 0.00615717C0.500057 -0.0233894 0.290813 0.0546475 0.152607 0.213484C0.0144 0.37232 -0.0339633 0.590343 0.0241162 0.792721L1.19522 4.87345C1.34812 5.40621 1.83538 5.7733 2.38965 5.7733H7.45586C7.799 5.7733 8.07718 6.05148 8.07718 6.39462C8.07718 6.73777 7.799 7.01595 7.45586 7.01595H2.38966C1.83538 7.01595 1.34813 7.38303 1.19523 7.9158L0.0241162 11.9966C-0.0339633 12.1989 0.0144 12.417 0.152607 12.5758C0.290813 12.7346 0.500057 12.8127 0.708521 12.7831C5.54469 12.0977 9.91706 9.97238 13.3777 6.85636C13.5086 6.73854 13.5833 6.57072 13.5833 6.39464C13.5833 6.21855 13.5086 6.05073 13.3777 5.93291C9.91706 2.81689 5.54469 0.69161 0.708521 0.00615717Z" fill="var(--fill-0, white)"/>
</svg>
