<svg preserveAspectRatio="none" width="100%" height="100%" overflow="visible" style="display: block;" viewBox="0 0 16.25 16.25" fill="none" xmlns="http://www.w3.org/2000/svg">
<g id="vector">
<path d="M11.4583 7.5H8.75V4.79167C8.75 4.44687 8.46979 4.16667 8.125 4.16667C7.78021 4.16667 7.5 4.44687 7.5 4.79167V7.5H4.79167C4.44687 7.5 4.16667 7.78021 4.16667 8.125C4.16667 8.46979 4.44687 8.75 4.79167 8.75H7.5V11.4583C7.5 11.8031 7.78021 12.0833 8.125 12.0833C8.46979 12.0833 8.75 11.8031 8.75 11.4583V8.75H11.4583C11.8031 8.75 12.0833 8.46979 12.0833 8.125C12.0833 7.78021 11.8031 7.5 11.4583 7.5Z" fill="var(--fill-0, white)"/>
<path d="M8.125 0C3.64479 0 0 3.64479 0 8.125C0 12.6052 3.64479 16.25 8.125 16.25C12.6052 16.25 16.25 12.6052 16.25 8.125C16.25 3.64479 12.6052 0 8.125 0ZM8.125 15C4.33437 15 1.25 11.9156 1.25 8.125C1.25 4.33437 4.33437 1.25 8.125 1.25C11.9156 1.25 15 4.33437 15 8.125C15 11.9156 11.9156 15 8.125 15Z" fill="var(--fill-0, white)"/>
</g>
</svg>
