<svg preserveAspectRatio="none" width="100%" height="100%" overflow="visible" style="display: block;" viewBox="0 0 17.4813 11.3513" fill="none" xmlns="http://www.w3.org/2000/svg">
<path id="Vector" fill-rule="evenodd" clip-rule="evenodd" d="M0.429335 0.429335C0.668449 0.190222 1.05613 0.190222 1.29524 0.429335L6.37289 5.50698L9.4391 2.44077C9.6559 2.22396 9.99964 2.20095 10.2434 2.38691C12.009 3.73377 13.3596 5.65457 13.9786 7.96485L14.2299 8.90273L16.0886 5.6835C16.2576 5.39064 16.6321 5.29031 16.925 5.45938C17.2178 5.62846 17.3182 6.00293 17.1491 6.29579L14.5514 10.7952C14.4702 10.9358 14.3364 11.0384 14.1796 11.0805C14.0227 11.1225 13.8556 11.1005 13.715 11.0193L9.21557 8.42156C8.92272 8.25249 8.82238 7.87802 8.99146 7.58516C9.16054 7.29231 9.53501 7.19197 9.82786 7.36105L13.0471 9.21967L12.7958 8.2818C12.2988 6.42714 11.2693 4.859 9.91538 3.6963L6.80584 6.80584C6.56673 7.04495 6.17905 7.04495 5.93993 6.80584L0.429335 1.29524C0.190222 1.05613 0.190222 0.668449 0.429335 0.429335Z" fill="var(--fill-0, white)" stroke="var(--stroke-0, #F2F3F7)" stroke-width="0.5" stroke-linecap="round" stroke-linejoin="round"/>
</svg>
