<svg preserveAspectRatio="none" width="100%" height="100%" overflow="visible" style="display: block;" viewBox="0 0 48.4873 9.78223" fill="none" xmlns="http://www.w3.org/2000/svg">
<g id="Icon + Text">
<line id="Line 197" x1="7.7373" y1="4.64111" x2="48.2373" y2="4.64111" stroke="url(#paint0_linear_1545_163598)" stroke-width="0.5" stroke-linecap="round"/>
<path id="Subtract" d="M5.24414 0C5.32603 2.71441 7.63926 4.89061 10.4834 4.89062C10.4847 4.89062 10.486 4.88965 10.4873 4.88965V4.89062C10.486 4.89062 10.4847 4.89062 10.4834 4.89062C7.63902 4.89064 5.32566 7.06749 5.24414 9.78223C5.16264 7.06763 2.84906 4.89086 0.00488281 4.89062C0.0034115 4.89062 0.00147103 4.89062 0 4.89062V4.88965C0.00147136 4.88965 0.00341117 4.89062 0.00488281 4.89062C2.84882 4.89039 5.16226 2.71428 5.24414 0Z" fill="var(--fill-0, #989FB3)"/>
</g>
<defs>
<linearGradient id="paint0_linear_1545_163598" x1="7.4873" y1="5.39111" x2="48.4873" y2="5.39111" gradientUnits="userSpaceOnUse">
<stop stop-color="#989FB3"/>
<stop offset="1" stop-color="white"/>
</linearGradient>
</defs>
</svg>
