<svg preserveAspectRatio="none" width="100%" height="100%" overflow="visible" style="display: block;" viewBox="0 0 17.3594 28.3333" fill="none" xmlns="http://www.w3.org/2000/svg">
<g id="LIne RAW">
<g id="Group">
<path id="Vector" d="M15.2742 26.9445V24.5558L11.8023 25.5558V26.9445C11.8023 27.7118 12.4238 28.3333 13.1911 28.3333H13.8854C14.6527 28.3333 15.2742 27.7118 15.2742 26.9445Z" fill="var(--fill-0, #878E9E)"/>
<path id="Vector_2" d="M2.08239 26.9445V24.5558L5.55427 25.5558V26.9445C5.55427 27.7118 4.9328 28.3333 4.16552 28.3333H3.47114C2.70386 28.3333 2.08239 27.7118 2.08239 26.9445Z" fill="var(--fill-0, #878E9E)"/>
</g>
<path id="Vector_3" d="M4.51242 25.3308H12.8449C15.1459 25.3308 17.0112 23.4655 17.0112 21.1646L17.0112 9.36021C17.0112 7.05925 15.1459 5.19396 12.8449 5.19396H4.51242C2.21147 5.19396 0.346174 7.05925 0.346174 9.36021L0.346174 21.1646C0.346174 23.4655 2.21147 25.3308 4.51242 25.3308Z" fill="var(--fill-0, #F2F3F7)"/>
<g id="Vector_4">
<path d="M12.844 6.58265H4.51146C2.97749 6.58265 1.73396 7.82618 1.73396 9.36015V21.1645C1.73396 22.6985 2.97749 23.942 4.51146 23.942H12.844C14.3779 23.942 15.6215 22.6985 15.6215 21.1645V9.36015C15.6215 7.82618 14.3779 6.58265 12.844 6.58265Z" fill="url(#paint0_linear_1541_11815)"/>
<path d="M12.844 6.58265H4.51146C2.97749 6.58265 1.73396 7.82618 1.73396 9.36015V21.1645C1.73396 22.6985 2.97749 23.942 4.51146 23.942H12.844C14.3779 23.942 15.6215 22.6985 15.6215 21.1645V9.36015C15.6215 7.82618 14.3779 6.58265 12.844 6.58265Z" stroke="var(--stroke-0, black)" stroke-width="0.333333"/>
<path d="M12.844 6.58265H4.51146C2.97749 6.58265 1.73396 7.82618 1.73396 9.36015V21.1645C1.73396 22.6985 2.97749 23.942 4.51146 23.942H12.844C14.3779 23.942 15.6215 22.6985 15.6215 21.1645V9.36015C15.6215 7.82618 14.3779 6.58265 12.844 6.58265Z" stroke="url(#paint1_linear_1541_11815)" stroke-width="0.333333"/>
</g>
<g id="Vector_5">
<path d="M17.0122 10.0546C17.0122 11.5886 15.7687 12.8321 14.2347 12.8321H3.12469C1.59072 12.8321 0.347187 11.5886 0.347187 10.0546" stroke="var(--stroke-0, white)" stroke-width="0.694375" stroke-linejoin="round"/>
<path d="M17.0122 10.0546C17.0122 11.5886 15.7687 12.8321 14.2347 12.8321H3.12469C1.59072 12.8321 0.347187 11.5886 0.347187 10.0546" stroke="var(--stroke-1, #F2F3F7)" stroke-width="0.694375" stroke-linejoin="round"/>
</g>
<g id="Vector_6">
<path d="M10.0681 12.8322H7.2906V14.9153H10.0681V12.8322Z" fill="var(--fill-0, white)"/>
<path d="M10.0681 12.8322H7.2906V14.9153H10.0681V12.8322Z" fill="var(--fill-1, #F2F3F7)"/>
<path d="M10.0681 12.8322H7.2906V14.9153H10.0681V12.8322Z" stroke="var(--stroke-0, white)" stroke-width="0.694375" stroke-linejoin="round"/>
<path d="M10.0681 12.8322H7.2906V14.9153H10.0681V12.8322Z" stroke="var(--stroke-1, #F2F3F7)" stroke-width="0.694375" stroke-linejoin="round"/>
</g>
<path id="Vector_7" d="M12.844 5.19394L4.51154 5.19394C2.21058 5.19394 0.345286 7.05924 0.345286 9.36019L0.345284 21.1646C0.345283 23.4655 2.21058 25.3308 4.51153 25.3308L12.844 25.3308C15.145 25.3308 17.0103 23.4655 17.0103 21.1646L17.0103 9.36019C17.0103 7.05924 15.145 5.19394 12.844 5.19394Z" stroke="url(#paint2_linear_1541_11815)" stroke-width="0.666667"/>
<path id="Vector_8" d="M6.59555 0.333333H10.7618C11.5291 0.333333 12.1505 0.954799 12.1505 1.72208V5.19396H5.2068V1.72208C5.2068 0.954799 5.82826 0.333333 6.59555 0.333333Z" stroke="var(--stroke-0, #CACED8)" stroke-width="0.666667"/>
</g>
<defs>
<linearGradient id="paint0_linear_1541_11815" x1="8.6777" y1="4.97461" x2="8.6777" y2="40.9437" gradientUnits="userSpaceOnUse">
<stop stop-color="#D0D4DD"/>
<stop offset="1" stop-color="#475067"/>
</linearGradient>
<linearGradient id="paint1_linear_1541_11815" x1="8.6777" y1="4.97461" x2="8.6777" y2="40.9437" gradientUnits="userSpaceOnUse">
<stop stop-color="#D0D4DD"/>
<stop offset="1" stop-color="#475067"/>
</linearGradient>
<linearGradient id="paint2_linear_1541_11815" x1="8.67778" y1="3.32861" x2="8.67777" y2="45.0527" gradientUnits="userSpaceOnUse">
<stop stop-color="#D0D4DD"/>
<stop offset="1" stop-color="#475067"/>
</linearGradient>
</defs>
</svg>
