<svg preserveAspectRatio="none" width="100%" height="100%" overflow="visible" style="display: block;" viewBox="0 0 6.57057 6.18829" fill="none" xmlns="http://www.w3.org/2000/svg">
<g id="LIne RAW">
<path id="Vector" d="M3.28546 6.18829C3.26249 6.18829 3.23905 6.18548 3.21655 6.17985C3.1514 6.16345 1.60218 5.75376 0.439677 3.80142C-0.233448 2.67079 -0.122824 1.26126 0.69702 0.522042C1.19108 0.0762603 1.77093 -0.092021 2.33015 0.0481352C2.71452 0.144698 3.04546 0.378135 3.28546 0.712823C3.52546 0.378135 3.8564 0.144698 4.24077 0.0481352C4.79952 -0.092021 5.37936 0.0762603 5.8739 0.522042C6.69327 1.26126 6.8039 2.67126 6.13124 3.80142C4.96874 5.75376 3.41999 6.16345 3.35436 6.17985C3.33186 6.18548 3.3089 6.18829 3.28546 6.18829Z" fill="var(--fill-0, #F06060)"/>
</g>
</svg>
