<svg preserveAspectRatio="none" width="100%" height="100%" overflow="visible" style="display: block;" viewBox="0 0 23.8121 26.2351" fill="none" xmlns="http://www.w3.org/2000/svg">
<g id="LIne RAW">
<path id="Vector" d="M16.9686 8.04934C16.9683 8.05002 16.9673 8.04998 16.967 8.04928C16.6312 7.24859 15.641 6.92829 14.9246 7.41919C13.475 8.41215 11.5152 8.50589 9.94067 7.50078C8.17002 6.37069 7.45481 4.20945 8.07628 2.29992C8.28633 1.65588 8.05892 0.951092 7.4878 0.588282L7.44787 0.562243C6.77085 0.129994 5.8699 0.327891 5.43765 1.00491L0.988446 7.97122C-0.249278 9.91027 0.318374 12.4864 2.25742 13.7241L20.9847 25.683C21.6305 26.0961 22.4898 25.9069 22.9029 25.2594L23.2605 24.7005C23.5053 24.3168 23.547 23.8394 23.3716 23.4193L16.9702 8.0494C16.9699 8.04869 16.969 8.04866 16.9686 8.04934Z" fill="var(--fill-0, #F2F3F7)"/>
<path id="Vector_2" d="M16.9686 8.04934C16.9683 8.05002 16.9673 8.04998 16.967 8.04928C16.6312 7.24859 15.641 6.92829 14.9246 7.41919C13.475 8.41215 11.5152 8.50589 9.94067 7.50078C8.17002 6.37069 7.45481 4.20945 8.07628 2.29992C8.28633 1.65588 8.05892 0.951092 7.4878 0.588282L7.44787 0.562243C6.77085 0.129994 5.8699 0.327891 5.43765 1.00491L0.988446 7.97122C-0.249278 9.91027 0.318374 12.4864 2.25742 13.7241L20.9847 25.683C21.6305 26.0961 22.4898 25.9069 22.9029 25.2594L23.2605 24.7005C23.5053 24.3168 23.547 23.8394 23.3716 23.4193L16.9702 8.0494C16.9699 8.04869 16.969 8.04866 16.9686 8.04934Z" stroke="url(#paint0_linear_1541_12181)" stroke-width="0.666667"/>
<g id="Vector_3">
<path d="M21.1955 21.8102L19.3954 17.4894L18.3903 17.9078C18.3035 17.9443 18.2132 17.9616 18.1229 17.9616C17.8504 17.9616 17.5935 17.8002 17.4824 17.5346C17.3348 17.1805 17.5032 16.7742 17.8556 16.6267L18.8607 16.2083L18.1368 14.4707L16.9824 14.9515C16.8956 14.988 16.8054 15.0053 16.7151 15.0053C16.4426 15.0053 16.1856 14.8439 16.0745 14.5783C15.927 14.2242 16.0954 13.8179 16.4478 13.6704L17.6022 13.1895L16.8783 11.4519L15.5746 11.9952C15.4878 12.0317 15.3975 12.049 15.3073 12.049C15.0347 12.049 14.7778 11.8876 14.6667 11.622C14.5191 11.2678 14.6858 10.8616 15.0399 10.7141L16.3436 10.1707L15.6839 8.5893C15.6839 8.5893 15.6822 8.5893 15.6805 8.5893C13.7258 9.91382 11.1827 9.95027 9.19154 8.67783C6.92267 7.23006 5.92104 4.43173 6.75429 1.87643C6.76817 1.8365 6.76644 1.78269 6.73866 1.76533L6.697 1.73929C6.68659 1.73234 6.67443 1.72887 6.66228 1.72887C6.63971 1.72887 6.61888 1.73929 6.60499 1.76012L2.15579 8.72644C1.74437 9.37394 1.93532 10.2332 2.58283 10.6464L20.7095 22.2216C20.982 22.3952 21.3171 22.114 21.1921 21.8154L21.1955 21.8102Z" fill="url(#paint1_linear_1541_12181)"/>
<path d="M21.1955 21.8102L19.3954 17.4894L18.3903 17.9078C18.3035 17.9443 18.2132 17.9616 18.1229 17.9616C17.8504 17.9616 17.5935 17.8002 17.4824 17.5346C17.3348 17.1805 17.5032 16.7742 17.8556 16.6267L18.8607 16.2083L18.1368 14.4707L16.9824 14.9515C16.8956 14.988 16.8054 15.0053 16.7151 15.0053C16.4426 15.0053 16.1856 14.8439 16.0745 14.5783C15.927 14.2242 16.0954 13.8179 16.4478 13.6704L17.6022 13.1895L16.8783 11.4519L15.5746 11.9952C15.4878 12.0317 15.3975 12.049 15.3073 12.049C15.0347 12.049 14.7778 11.8876 14.6667 11.622C14.5191 11.2678 14.6858 10.8616 15.0399 10.7141L16.3436 10.1707L15.6839 8.5893C15.6839 8.5893 15.6822 8.5893 15.6805 8.5893C13.7258 9.91382 11.1827 9.95027 9.19154 8.67783C6.92267 7.23006 5.92104 4.43173 6.75429 1.87643C6.76817 1.8365 6.76644 1.78269 6.73866 1.76533L6.697 1.73929C6.68659 1.73234 6.67443 1.72887 6.66228 1.72887C6.63971 1.72887 6.61888 1.73929 6.60499 1.76012L2.15579 8.72644C1.74437 9.37394 1.93532 10.2332 2.58283 10.6464L20.7095 22.2216C20.982 22.3952 21.3171 22.114 21.1921 21.8154L21.1955 21.8102Z" stroke="var(--stroke-0, black)" stroke-width="0.333333"/>
<path d="M21.1955 21.8102L19.3954 17.4894L18.3903 17.9078C18.3035 17.9443 18.2132 17.9616 18.1229 17.9616C17.8504 17.9616 17.5935 17.8002 17.4824 17.5346C17.3348 17.1805 17.5032 16.7742 17.8556 16.6267L18.8607 16.2083L18.1368 14.4707L16.9824 14.9515C16.8956 14.988 16.8054 15.0053 16.7151 15.0053C16.4426 15.0053 16.1856 14.8439 16.0745 14.5783C15.927 14.2242 16.0954 13.8179 16.4478 13.6704L17.6022 13.1895L16.8783 11.4519L15.5746 11.9952C15.4878 12.0317 15.3975 12.049 15.3073 12.049C15.0347 12.049 14.7778 11.8876 14.6667 11.622C14.5191 11.2678 14.6858 10.8616 15.0399 10.7141L16.3436 10.1707L15.6839 8.5893C15.6839 8.5893 15.6822 8.5893 15.6805 8.5893C13.7258 9.91382 11.1827 9.95027 9.19154 8.67783C6.92267 7.23006 5.92104 4.43173 6.75429 1.87643C6.76817 1.8365 6.76644 1.78269 6.73866 1.76533L6.697 1.73929C6.68659 1.73234 6.67443 1.72887 6.66228 1.72887C6.63971 1.72887 6.61888 1.73929 6.60499 1.76012L2.15579 8.72644C1.74437 9.37394 1.93532 10.2332 2.58283 10.6464L20.7095 22.2216C20.982 22.3952 21.3171 22.114 21.1921 21.8154L21.1955 21.8102Z" stroke="url(#paint2_linear_1541_12181)" stroke-width="0.333333"/>
</g>
</g>
<defs>
<linearGradient id="paint0_linear_1541_12181" x1="11.9061" y1="-2.0351" x2="11.9061" y2="50.9432" gradientUnits="userSpaceOnUse">
<stop stop-color="#D0D4DD"/>
<stop offset="1" stop-color="#475067"/>
</linearGradient>
<linearGradient id="paint1_linear_1541_12181" x1="11.5789" y1="-0.174356" x2="11.5789" y2="42.3975" gradientUnits="userSpaceOnUse">
<stop stop-color="#D0D4DD"/>
<stop offset="1" stop-color="#475067"/>
</linearGradient>
<linearGradient id="paint2_linear_1541_12181" x1="11.5789" y1="-0.174356" x2="11.5789" y2="42.3975" gradientUnits="userSpaceOnUse">
<stop stop-color="#D0D4DD"/>
<stop offset="1" stop-color="#475067"/>
</linearGradient>
</defs>
</svg>
