<svg preserveAspectRatio="none" width="100%" height="100%" overflow="visible" style="display: block;" viewBox="0 0 32.818 31.929" fill="none" xmlns="http://www.w3.org/2000/svg">
<g id="LIne RAW">
<path id="Vector" d="M21.4949 4.71405L25.0305 8.24958C27.632 10.8511 27.632 15.0761 25.0305 17.6777L20.9057 21.8025C17.3289 25.3792 11.5188 25.3792 7.94206 21.8025C4.36527 18.2257 4.36527 12.4156 7.94206 8.83883L12.0668 4.71405C14.6684 2.11248 18.8934 2.11248 21.4949 4.71405Z" fill="var(--fill-0, #F2F3F7)"/>
<g id="Vector_2">
<path d="M16.7815 4.42896C15.4461 4.42896 14.1899 4.94979 13.2461 5.89354L9.12112 10.0185C6.19612 12.9435 6.19612 17.7019 9.12112 20.6248C12.0461 23.5498 16.8045 23.5498 19.7274 20.6248L23.8524 16.4998C24.7961 15.556 25.317 14.2998 25.317 12.9644C25.317 11.629 24.7961 10.3727 23.8524 9.42896L20.317 5.89354C19.3732 4.94979 18.117 4.42896 16.7815 4.42896Z" fill="url(#paint0_linear_1541_11796)"/>
<path d="M16.7815 4.42896C15.4461 4.42896 14.1899 4.94979 13.2461 5.89354L9.12112 10.0185C6.19612 12.9435 6.19612 17.7019 9.12112 20.6248C12.0461 23.5498 16.8045 23.5498 19.7274 20.6248L23.8524 16.4998C24.7961 15.556 25.317 14.2998 25.317 12.9644C25.317 11.629 24.7961 10.3727 23.8524 9.42896L20.317 5.89354C19.3732 4.94979 18.117 4.42896 16.7815 4.42896Z" stroke="var(--stroke-0, black)" stroke-width="0.4"/>
<path d="M16.7815 4.42896C15.4461 4.42896 14.1899 4.94979 13.2461 5.89354L9.12112 10.0185C6.19612 12.9435 6.19612 17.7019 9.12112 20.6248C12.0461 23.5498 16.8045 23.5498 19.7274 20.6248L23.8524 16.4998C24.7961 15.556 25.317 14.2998 25.317 12.9644C25.317 11.629 24.7961 10.3727 23.8524 9.42896L20.317 5.89354C19.3732 4.94979 18.117 4.42896 16.7815 4.42896Z" stroke="url(#paint1_linear_1541_11796)" stroke-width="0.4"/>
</g>
<g id="Vector_3">
<path d="M27.8167 31.0955C30.1179 31.0955 31.9834 29.2301 31.9834 26.9289C31.9834 24.6277 30.1179 22.7622 27.8167 22.7622C25.5155 22.7622 23.65 24.6277 23.65 26.9289C23.65 29.2301 25.5155 31.0955 27.8167 31.0955Z" fill="var(--fill-0, #D9D9D9)"/>
<path d="M27.8167 31.0955C30.1179 31.0955 31.9834 29.2301 31.9834 26.9289C31.9834 24.6277 30.1179 22.7622 27.8167 22.7622C25.5155 22.7622 23.65 24.6277 23.65 26.9289C23.65 29.2301 25.5155 31.0955 27.8167 31.0955Z" fill="url(#paint2_linear_1541_11796)"/>
<path d="M27.8167 31.0955C30.1179 31.0955 31.9834 29.2301 31.9834 26.9289C31.9834 24.6277 30.1179 22.7622 27.8167 22.7622C25.5155 22.7622 23.65 24.6277 23.65 26.9289C23.65 29.2301 25.5155 31.0955 27.8167 31.0955Z" stroke="url(#paint3_linear_1541_11796)" stroke-width="0.8"/>
</g>
<path id="Vector_4" d="M7.94326 8.83936C5.16826 11.6144 4.54534 15.7248 6.07034 19.0998C6.91826 20.9748 6.57451 23.1727 5.11826 24.6289L0.282843 29.4644" stroke="var(--stroke-0, #8990A0)" stroke-width="0.8"/>
<path id="Vector_5" d="M20.9078 21.804C18.1328 24.579 14.0224 25.2019 10.6474 23.6769C8.77243 22.829 6.57451 23.1727 5.11826 24.629L0.282843 29.4644" stroke="var(--stroke-0, #8990A0)" stroke-width="0.8"/>
<path id="Vector_6" d="M18.8447 17.6288C19.3049 17.6288 19.678 17.2557 19.678 16.7955C19.678 16.3353 19.3049 15.9622 18.8447 15.9622C18.3845 15.9622 18.0114 16.3353 18.0114 16.7955C18.0114 17.2557 18.3845 17.6288 18.8447 17.6288Z" fill="var(--fill-0, white)"/>
<path id="Vector_7" d="M15.8994 14.6808C16.3596 14.6808 16.7327 14.3077 16.7327 13.8475C16.7327 13.3873 16.3596 13.0142 15.8994 13.0142C15.4391 13.0142 15.066 13.3873 15.066 13.8475C15.066 14.3077 15.4391 14.6808 15.8994 14.6808Z" fill="var(--fill-0, white)"/>
<path id="Vector_8" d="M12.9502 11.735C13.4104 11.735 13.7835 11.3619 13.7835 10.9017C13.7835 10.4415 13.4104 10.0684 12.9502 10.0684C12.4899 10.0684 12.1168 10.4415 12.1168 10.9017C12.1168 11.3619 12.4899 11.735 12.9502 11.735Z" fill="var(--fill-0, white)"/>
<path id="Vector_9" d="M21.497 14.9767C21.9573 14.9767 22.3304 14.6036 22.3304 14.1434C22.3304 13.6832 21.9573 13.3101 21.497 13.3101C21.0368 13.3101 20.6637 13.6832 20.6637 14.1434C20.6637 14.6036 21.0368 14.9767 21.497 14.9767Z" fill="var(--fill-0, white)"/>
<path id="Vector_10" d="M18.5478 12.0309C19.0081 12.0309 19.3811 11.6578 19.3811 11.1976C19.3811 10.7374 19.0081 10.3643 18.5478 10.3643C18.0876 10.3643 17.7145 10.7374 17.7145 11.1976C17.7145 11.6578 18.0876 12.0309 18.5478 12.0309Z" fill="var(--fill-0, white)"/>
<path id="Vector_11" d="M15.6026 9.08303C16.0628 9.08303 16.4359 8.70994 16.4359 8.2497C16.4359 7.78946 16.0628 7.41637 15.6026 7.41637C15.1423 7.41637 14.7693 7.78946 14.7693 8.2497C14.7693 8.70994 15.1423 9.08303 15.6026 9.08303Z" fill="var(--fill-0, white)"/>
<path id="Vector_12" d="M16.1922 20.2789C16.6524 20.2789 17.0255 19.9058 17.0255 19.4456C17.0255 18.9853 16.6524 18.6122 16.1922 18.6122C15.7319 18.6122 15.3589 18.9853 15.3589 19.4456C15.3589 19.9058 15.7319 20.2789 16.1922 20.2789Z" fill="var(--fill-0, white)"/>
<path id="Vector_13" d="M13.247 17.3329C13.7073 17.3329 14.0804 16.9598 14.0804 16.4996C14.0804 16.0394 13.7073 15.6663 13.247 15.6663C12.7868 15.6663 12.4137 16.0394 12.4137 16.4996C12.4137 16.9598 12.7868 17.3329 13.247 17.3329Z" fill="var(--fill-0, white)"/>
<path id="Vector_14" d="M10.2998 14.3871C10.76 14.3871 11.1331 14.014 11.1331 13.5538C11.1331 13.0936 10.76 12.7205 10.2998 12.7205C9.83953 12.7205 9.46644 13.0936 9.46644 13.5538C9.46644 14.014 9.83953 14.3871 10.2998 14.3871Z" fill="var(--fill-0, white)"/>
<path id="Vector_15" d="M32.818 6.92896C31.6597 6.49979 30.7472 5.58729 30.318 4.42896C29.8888 5.58729 28.9763 6.49979 27.818 6.92896C28.9763 7.35812 29.8888 8.27062 30.318 9.42895C30.7472 8.27062 31.6597 7.35812 32.818 6.92896Z" fill="var(--fill-0, #D0D4DD)"/>
<path id="Vector_16" d="M17.818 29.429C16.6597 28.9998 15.7472 28.0873 15.318 26.929C14.8888 28.0873 13.9763 28.9998 12.818 29.429C13.9763 29.8581 14.8888 30.7706 15.318 31.929C15.7472 30.7706 16.6597 29.8581 17.818 29.429Z" fill="var(--fill-0, #D0D4DD)"/>
<path id="Vector_17" d="M21.4949 4.71405L25.0305 8.24958C27.632 10.8511 27.632 15.0761 25.0305 17.6777L20.9057 21.8025C17.3289 25.3792 11.5188 25.3792 7.94206 21.8025C4.36527 18.2257 4.36527 12.4156 7.94206 8.83883L12.0668 4.71405C14.6684 2.11248 18.8934 2.11248 21.4949 4.71405Z" stroke="url(#paint4_linear_1541_11796)" stroke-width="0.8"/>
</g>
<defs>
<linearGradient id="paint0_linear_1541_11796" x1="16.1222" y1="2.72548" x2="16.1222" y2="40.8292" gradientUnits="userSpaceOnUse">
<stop stop-color="#D0D4DD"/>
<stop offset="1" stop-color="#475067"/>
</linearGradient>
<linearGradient id="paint1_linear_1541_11796" x1="16.1222" y1="2.72548" x2="16.1222" y2="40.8292" gradientUnits="userSpaceOnUse">
<stop stop-color="#D0D4DD"/>
<stop offset="1" stop-color="#475067"/>
</linearGradient>
<linearGradient id="paint2_linear_1541_11796" x1="27.8167" y1="21.9903" x2="27.8167" y2="39.2571" gradientUnits="userSpaceOnUse">
<stop stop-color="#D0D4DD"/>
<stop offset="1" stop-color="#475067"/>
</linearGradient>
<linearGradient id="paint3_linear_1541_11796" x1="27.8167" y1="21.9903" x2="27.8167" y2="39.2571" gradientUnits="userSpaceOnUse">
<stop stop-color="#D0D4DD"/>
<stop offset="1" stop-color="#475067"/>
</linearGradient>
<linearGradient id="paint4_linear_1541_11796" x1="24.6819" y1="5.06261" x2="-7.06289" y2="36.8074" gradientUnits="userSpaceOnUse">
<stop stop-color="#D0D4DD"/>
<stop offset="1" stop-color="#475067"/>
</linearGradient>
</defs>
</svg>
