<svg preserveAspectRatio="none" width="100%" height="100%" overflow="visible" style="display: block;" viewBox="0 0 16 16" fill="none" xmlns="http://www.w3.org/2000/svg">
<g id="outline/heart">
<path id="Vector" d="M14 5.5C14 3.84315 12.6009 2.5 10.875 2.5C9.58459 2.5 8.47685 3.25085 8 4.32228C7.52315 3.25085 6.41541 2.5 5.125 2.5C3.39911 2.5 2 3.84315 2 5.5C2 10.3137 8 13.5 8 13.5C8 13.5 14 10.3137 14 5.5Z" fill="var(--fill-0, white)"/>
<path id="Vector (Stroke)" d="M13.5 5.5C13.5 4.13833 12.3442 3 10.875 3C9.78026 3 8.85286 3.63628 8.45703 4.52539C8.37673 4.70583 8.1975 4.82227 8 4.82227C7.8025 4.82227 7.62327 4.70583 7.54297 4.52539C7.14714 3.63628 6.21974 3 5.125 3C3.65582 3 2.5 4.13833 2.5 5.5C2.5 7.69696 3.87469 9.57273 5.34082 10.9395C6.06565 11.6151 6.79243 12.1475 7.33887 12.5107C7.61162 12.6921 7.83894 12.8304 7.99609 12.9229C7.99735 12.9236 7.99875 12.9241 8 12.9248C8.00125 12.9241 8.00265 12.9236 8.00391 12.9229C8.16106 12.8304 8.38838 12.6921 8.66113 12.5107C9.20757 12.1475 9.93435 11.6151 10.6592 10.9395C12.1253 9.57273 13.5 7.69696 13.5 5.5ZM14.5 5.5C14.5 8.11673 12.8747 10.2411 11.3408 11.6709C10.5658 12.3934 9.79239 12.9592 9.21387 13.3438C8.9246 13.536 8.68257 13.6837 8.51172 13.7842C8.4262 13.8345 8.35765 13.8731 8.31055 13.8994C8.28708 13.9125 8.26869 13.9227 8.25586 13.9297C8.24948 13.9332 8.24481 13.9365 8.24121 13.9385C8.23941 13.9394 8.23741 13.9398 8.23633 13.9404L8.23535 13.9414H8.23438C8.08775 14.0193 7.91225 14.0193 7.76562 13.9414H7.76465L7.76367 13.9404C7.76259 13.9398 7.76059 13.9394 7.75879 13.9385C7.75519 13.9365 7.75052 13.9332 7.74414 13.9297C7.73131 13.9227 7.71292 13.9125 7.68945 13.8994C7.64235 13.8731 7.5738 13.8345 7.48828 13.7842C7.31743 13.6837 7.0754 13.536 6.78613 13.3438C6.20761 12.9592 5.43424 12.3934 4.65918 11.6709C3.12532 10.2411 1.5 8.11673 1.5 5.5C1.5 3.54796 3.1424 2 5.125 2C6.29188 2 7.33496 2.53491 8 3.37109C8.66504 2.53491 9.70812 2 10.875 2C12.8576 2 14.5 3.54796 14.5 5.5Z" fill="var(--fill-0, #666D85)"/>
</g>
</svg>
