<svg width="100%" height="100%" overflow="visible" style="display: block;" viewBox="0 0 12.3561 9.75" fill="none" xmlns="http://www.w3.org/2000/svg">
<path id="Vector" d="M4 8.375C4 8.85825 3.60825 9.25 3.125 9.25C2.64175 9.25 2.25 8.85825 2.25 8.375M4 8.375C4 7.89175 3.60825 7.5 3.125 7.5C2.64175 7.5 2.25 7.89175 2.25 8.375M4 8.375H7.5M2.25 8.375H1.15625C0.793813 8.375 0.5 8.08119 0.5 7.71875V5.75026M10.5625 8.375C10.5625 8.85825 10.1707 9.25 9.6875 9.25C9.20425 9.25 8.8125 8.85825 8.8125 8.375M10.5625 8.375C10.5625 7.89175 10.1707 7.5 9.6875 7.5C9.20425 7.5 8.8125 7.89175 8.8125 8.375M10.5625 8.375L11.2187 8.37498C11.5812 8.37498 11.8771 8.08083 11.8548 7.71908C11.7323 5.73132 11.0567 3.89318 9.9801 2.35665C9.76882 2.05512 9.42669 1.87535 9.05905 1.85517H7.5M8.8125 8.375H7.5M7.5 1.85517V1.29613C7.5 0.965091 7.25353 0.685037 6.92426 0.650867C5.96312 0.551123 4.98753 0.5 4 0.5C3.01247 0.5 2.03688 0.551123 1.07574 0.650867C0.746469 0.685037 0.5 0.965091 0.5 1.29613V5.75026M7.5 1.85517V5.75026M7.5 8.375V5.75026M7.5 5.75026H0.5" stroke="var(--stroke-0, #666D85)" stroke-linecap="round" stroke-linejoin="round"/>
</svg>
