<svg preserveAspectRatio="none" width="100%" height="100%" overflow="visible" style="display: block;" viewBox="0 0 14.5833 16.249" fill="none" xmlns="http://www.w3.org/2000/svg">
<g id="Vector">
<path d="M14.5833 3.95833C14.5833 3.61354 14.3031 3.33333 13.9583 3.33333C13.9313 3.33333 13.9042 3.33438 13.8771 3.33542H11.1135L10.7135 1.73646C10.4583 0.714588 9.54375 0 8.49063 0H6.09271C5.03958 0 4.125 0.713546 3.86979 1.73646L3.46979 3.33542H0.70625C0.679166 3.33542 0.652083 3.33333 0.625 3.33333C0.280208 3.33333 0 3.61354 0 3.95833C0 3.95833 0 3.95833 0 3.95938C0 4.30417 0.280208 4.58438 0.625 4.58438H0.665627C1.22083 4.60625 1.66667 5.06354 1.66667 5.62396V13.124C1.66667 14.8469 3.06875 16.249 4.79167 16.249H9.79167C11.5146 16.249 12.9167 14.8469 12.9167 13.124V5.62396C12.9167 5.06354 13.3625 4.60625 13.9177 4.58438H13.9583C14.3031 4.58438 14.5833 4.30417 14.5833 3.95938C14.5833 3.95938 14.5833 3.95937 14.5833 3.95833ZM5.08229 2.03958C5.19792 1.575 5.61354 1.25 6.09271 1.25H8.49063C8.96979 1.25 9.38542 1.575 9.50104 2.03958L9.825 3.33542H4.75833L5.08229 2.03958ZM11.6667 5.625V13.125C11.6667 14.1594 10.825 15 9.79167 15H4.79167C3.75729 15 2.91667 14.1594 2.91667 13.125V5.625C2.91667 5.25104 2.82604 4.89792 2.66667 4.58542H11.9177C11.7583 4.89792 11.6677 5.25104 11.6677 5.625H11.6667Z" fill="var(--fill-0, #B22424)"/>
<path d="M5.625 12.9167C5.96979 12.9167 6.25 12.6365 6.25 12.2917V7.29167C6.25 6.94687 5.96979 6.66667 5.625 6.66667C5.28021 6.66667 5 6.94687 5 7.29167V12.2917C5 12.6365 5.28021 12.9167 5.625 12.9167Z" fill="var(--fill-0, #B22424)"/>
<path d="M8.95833 12.9167C9.30312 12.9167 9.58333 12.6365 9.58333 12.2917V7.29167C9.58333 6.94687 9.30312 6.66667 8.95833 6.66667C8.61354 6.66667 8.33333 6.94687 8.33333 7.29167V12.2917C8.33333 12.6365 8.61354 12.9167 8.95833 12.9167Z" fill="var(--fill-0, #B22424)"/>
</g>
</svg>
