<svg preserveAspectRatio="none" width="100%" height="100%" overflow="visible" style="display: block;" viewBox="0 0 16.2 16.2" fill="none" xmlns="http://www.w3.org/2000/svg">
<path id="Vector" d="M5.6 8.725L7.475 10.6L10.6 6.225M15.6 8.1C15.6 9.1569 15.0753 10.0913 14.2722 10.6568C14.4401 11.6245 14.1504 12.656 13.4031 13.4033C12.6559 14.1505 11.6243 14.4402 10.6567 14.2724C10.0911 15.0754 9.15682 15.6 8.1 15.6C7.04321 15.6 6.10894 15.0754 5.54337 14.2725C4.57555 14.4405 3.5438 14.1508 2.79642 13.4034C2.04905 12.6561 1.75937 11.6243 1.92738 10.6565C1.12451 10.0909 0.6 9.15673 0.6 8.1C0.6 7.04323 1.12455 6.10898 1.92748 5.5434C1.75956 4.57566 2.04925 3.54403 2.79656 2.79672C3.54388 2.04941 4.57553 1.75972 5.54328 1.92765C6.10884 1.12463 7.04315 0.6 8.1 0.6C9.1568 0.6 10.0911 1.12458 10.6566 1.92756C11.6245 1.75954 12.6562 2.04921 13.4036 2.79659C14.1509 3.54395 14.4406 4.57568 14.2726 5.54348C15.0755 6.10906 15.6 7.04327 15.6 8.1Z" stroke="var(--stroke-0, #343D54)" stroke-width="1.2" stroke-linecap="round" stroke-linejoin="round"/>
</svg>
