<svg preserveAspectRatio="none" width="100%" height="100%" overflow="visible" style="display: block;" viewBox="0 0 14.5823 13.7495" fill="none" xmlns="http://www.w3.org/2000/svg">
<g id="Vector">
<path d="M13.9583 5.83385C13.6135 5.83385 13.3333 6.11406 13.3333 6.45885C13.3333 7.95573 13.25 9.46928 13.0844 10.9568V10.9682C13.0073 11.6474 12.4802 12.1745 11.8 12.2505H11.7896C8.80521 12.5828 5.77813 12.5828 2.79375 12.2516H2.78229C2.10313 12.1745 1.57604 11.6474 1.5 10.9682V10.9568C1.33333 9.46928 1.25 7.95677 1.25 6.4599C1.25 6.11511 0.969792 5.8349 0.625 5.8349C0.280208 5.8349 0 6.11511 0 6.4599C0 8.00261 0.0864574 9.56198 0.256249 11.0943V11.1057C0.397916 12.3703 1.37917 13.3516 2.64375 13.4922H2.65521C4.19375 13.6641 5.74167 13.7495 7.29062 13.7495C8.83958 13.7495 10.3885 13.6641 11.9271 13.4932H11.9375C13.2021 13.3516 14.1833 12.3703 14.324 11.1057V11.0943C14.4958 9.56094 14.5823 8.00156 14.5823 6.45885C14.5823 6.11406 14.3021 5.83385 13.9573 5.83385H13.9583Z" fill="var(--fill-0, #343D54)"/>
<path d="M4.4 4.40052L6.66667 2.13385V9.79114C6.66667 10.1359 6.94687 10.4161 7.29167 10.4161C7.63646 10.4161 7.91667 10.1359 7.91667 9.79114V2.13385L10.1833 4.40052C10.3052 4.52239 10.4656 4.58385 10.625 4.58385C10.7844 4.58385 10.9448 4.52239 11.0667 4.40052C11.3104 4.15677 11.3104 3.76094 11.0667 3.51615L7.73333 0.182812C7.48958 -0.0609375 7.09375 -0.0609375 6.84896 0.182812L3.51562 3.51615C3.27187 3.7599 3.27187 4.15573 3.51562 4.40052C3.75937 4.64531 4.15521 4.64427 4.4 4.40052Z" fill="var(--fill-0, #343D54)"/>
</g>
</svg>
