<svg preserveAspectRatio="none" width="100%" height="100%" overflow="visible" style="display: block;" viewBox="0 0 20 20" fill="none" xmlns="http://www.w3.org/2000/svg">
<g id="Group 1686557541">
<g id="Vector">
</g>
<g id="Group">
<path id="Vector_2" d="M2.91632 10.2089H8.33403V9.9995C8.33403 9.53908 8.70695 9.16616 9.16737 9.16616H10.834C11.2944 9.16616 11.6674 9.53908 11.6674 9.9995V10.2089H17.083C17.6569 10.2089 18.1247 9.74116 18.1247 9.1672V8.62241V7.49845C18.1247 6.23491 17.0965 5.20679 15.833 5.20679H13.933C13.8434 5.20679 13.7642 5.1495 13.7351 5.06408L13.2819 3.70366C13.083 3.10679 12.5267 2.70679 11.8986 2.70679H8.09966C7.47049 2.70679 6.91528 3.10783 6.71632 3.70366L6.2632 5.06408C6.23507 5.1495 6.15487 5.20679 6.06528 5.20679H4.16632C2.90278 5.20679 1.87466 6.23491 1.87466 7.49845V9.187C1.88507 9.75158 2.34757 10.2089 2.91528 10.2089H2.91632ZM7.6257 4.93387L7.90382 4.10054C7.93195 4.01512 8.01216 3.95783 8.10174 3.95783H11.9007C11.9903 3.95783 12.0694 4.01512 12.0986 4.10054L12.3767 4.93387C12.4059 5.02137 12.3715 5.08908 12.3476 5.12137C12.3247 5.15366 12.2715 5.20783 12.1788 5.20783H7.82466C7.73195 5.20783 7.67882 5.15366 7.65591 5.12137C7.63299 5.08908 7.59757 5.02137 7.62674 4.93387H7.6257Z" fill="var(--fill-0, #666D85)"/>
<path id="Vector_3" d="M17.083 11.4573H11.6674V11.6646C11.6674 12.125 11.2945 12.4979 10.8341 12.4979H9.1674C8.70698 12.4979 8.33407 12.125 8.33407 11.6646V11.4573H2.91636C2.54136 11.4573 2.18823 11.3667 1.87573 11.2063V14.1646C1.87573 15.8875 3.27782 17.2896 5.00073 17.2896H15.0007C16.7236 17.2896 18.1257 15.8875 18.1257 14.1646V11.2052C17.8132 11.3657 17.458 11.4573 17.083 11.4573Z" fill="var(--fill-0, #666D85)"/>
</g>
</g>
</svg>
