<svg preserveAspectRatio="none" width="100%" height="100%" overflow="visible" style="display: block;" viewBox="0 0 2.49791 12.495" fill="none" xmlns="http://www.w3.org/2000/svg">
<g id="Vector">
<path d="M1.24896 7.49505C1.16771 7.49505 1.08542 7.48672 1.00521 7.47109C0.925002 7.45547 0.846877 7.43151 0.770836 7.40026C0.695836 7.36901 0.622912 7.33046 0.555204 7.28567C0.486454 7.23984 0.422918 7.18776 0.365626 7.13047C0.308334 7.07317 0.256252 7.00859 0.210419 6.94088C0.165627 6.87317 0.127088 6.80026 0.0958379 6.72526C0.0645879 6.65026 0.040623 6.57109 0.0239563 6.49192C0.00728963 6.41171 0 6.32943 0 6.24818C0 6.16693 0.0083313 6.08463 0.0239563 6.00442C0.0395813 5.92422 0.0645879 5.84609 0.0958379 5.77109C0.127088 5.69609 0.165627 5.62317 0.210419 5.55547C0.256252 5.48672 0.308334 5.42317 0.365626 5.36588C0.422918 5.30859 0.487495 5.25651 0.555204 5.21067C0.622912 5.16588 0.695836 5.12734 0.770836 5.09609C0.845836 5.06484 0.925002 5.04088 1.00521 5.02525C1.16667 4.99296 1.33229 4.99296 1.49375 5.02525C1.57291 5.04088 1.65208 5.06484 1.72708 5.09609C1.80312 5.12734 1.875 5.16588 1.94271 5.21067C2.01146 5.25651 2.075 5.30859 2.13229 5.36588C2.18958 5.42317 2.2427 5.48776 2.2875 5.55547C2.33229 5.62317 2.37083 5.69609 2.40208 5.77109C2.43333 5.84609 2.45729 5.92526 2.47292 6.00442C2.48958 6.08463 2.49791 6.16693 2.49791 6.24818C2.49791 6.32943 2.48958 6.41171 2.47292 6.49192C2.45729 6.57213 2.43333 6.65026 2.40208 6.72526C2.37083 6.80026 2.33229 6.87317 2.2875 6.94088C2.24166 7.00963 2.18958 7.07317 2.13229 7.13047C2.075 7.18776 2.01042 7.23984 1.94271 7.28567C1.875 7.33046 1.80208 7.36901 1.72708 7.40026C1.65208 7.43151 1.57291 7.45547 1.49375 7.47109C1.41354 7.48776 1.33125 7.49505 1.25 7.49505H1.24896Z" fill="var(--fill-0, #343D54)"/>
<path d="M1.24896 2.49505C1.16771 2.49505 1.08542 2.48672 1.00521 2.47109C0.925002 2.45547 0.846877 2.43047 0.770836 2.39922C0.695836 2.36797 0.622912 2.32942 0.555204 2.28463C0.486454 2.2388 0.422918 2.18671 0.365626 2.12942C0.308334 2.07213 0.256252 2.00755 0.210419 1.93984C0.165627 1.87213 0.127088 1.79921 0.0958379 1.72421C0.0645879 1.64921 0.040623 1.57005 0.0239563 1.49088C0.00728963 1.41067 0 1.32838 0 1.24713C0 1.16588 0.0083313 1.08359 0.0239563 1.00338C0.0395813 0.923173 0.0645879 0.845049 0.0958379 0.770049C0.127088 0.695049 0.165627 0.622132 0.210419 0.554424C0.256252 0.485674 0.308334 0.422131 0.365626 0.364839C0.422918 0.307548 0.487495 0.254424 0.555204 0.209632C0.622912 0.16484 0.695836 0.126301 0.770836 0.0950513C0.845836 0.0638013 0.925002 0.0398437 1.00521 0.0242187C1.16667 -0.00807292 1.33229 -0.00807292 1.49375 0.0242187C1.57291 0.0398437 1.65208 0.064843 1.72708 0.0950513C1.80312 0.126301 1.875 0.16484 1.94271 0.209632C2.01146 0.255465 2.075 0.307548 2.13229 0.364839C2.18958 0.422131 2.2427 0.486715 2.2875 0.554424C2.33229 0.622132 2.37083 0.695049 2.40208 0.770049C2.43333 0.845049 2.45729 0.924215 2.47292 1.00338C2.48958 1.08359 2.49791 1.16588 2.49791 1.24713C2.49791 1.32838 2.48958 1.41067 2.47292 1.49088C2.45729 1.57109 2.43333 1.64921 2.40208 1.72421C2.37083 1.79921 2.33229 1.87213 2.2875 1.93984C2.24166 2.00859 2.18958 2.07213 2.13229 2.12942C2.075 2.18671 2.01042 2.23984 1.94271 2.28463C1.875 2.32942 1.80208 2.36797 1.72708 2.39922C1.65208 2.43047 1.57291 2.45443 1.49375 2.47109C1.41354 2.48776 1.33125 2.49505 1.25 2.49505H1.24896Z" fill="var(--fill-0, #343D54)"/>
<path d="M1.24896 12.495C1.16771 12.495 1.08542 12.4867 1.00521 12.4711C0.925002 12.4555 0.846877 12.4315 0.770836 12.4003C0.695836 12.369 0.622912 12.3305 0.555204 12.2857C0.486454 12.2398 0.422918 12.1878 0.365626 12.1305C0.308334 12.0732 0.256252 12.0086 0.210419 11.9409C0.165627 11.8732 0.127088 11.8003 0.0958379 11.7253C0.0645879 11.6503 0.040623 11.5711 0.0239563 11.4919C0.00728963 11.4117 0 11.3294 0 11.2482C0 11.1669 0.0083313 11.0846 0.0239563 11.0044C0.0395813 10.9242 0.0645879 10.8461 0.0958379 10.7711C0.127088 10.6961 0.165627 10.6232 0.210419 10.5555C0.256252 10.4867 0.308334 10.4232 0.365626 10.3659C0.422918 10.3086 0.487495 10.2565 0.555204 10.2107C0.622912 10.1659 0.695836 10.1273 0.770836 10.0961C0.845836 10.0648 0.925002 10.0409 1.00521 10.0253C1.16667 9.99296 1.33229 9.99296 1.49375 10.0253C1.57291 10.0409 1.65208 10.0648 1.72708 10.0961C1.80312 10.1273 1.875 10.1659 1.94271 10.2107C2.01146 10.2565 2.075 10.3086 2.13229 10.3659C2.18958 10.4232 2.2427 10.4878 2.2875 10.5555C2.33229 10.6232 2.37083 10.6961 2.40208 10.7711C2.43333 10.8461 2.45729 10.9253 2.47292 11.0044C2.48958 11.0846 2.49791 11.1669 2.49791 11.2482C2.49791 11.3294 2.48958 11.4117 2.47292 11.4919C2.45729 11.5721 2.43333 11.6503 2.40208 11.7253C2.37083 11.8003 2.33229 11.8732 2.2875 11.9409C2.24166 12.0096 2.18958 12.0732 2.13229 12.1305C2.075 12.1878 2.01042 12.2409 1.94271 12.2857C1.875 12.3305 1.80208 12.369 1.72708 12.4003C1.65208 12.4315 1.57291 12.4555 1.49375 12.4711C1.41354 12.4878 1.33125 12.495 1.25 12.495H1.24896Z" fill="var(--fill-0, #343D54)"/>
</g>
</svg>
