<svg preserveAspectRatio="none" width="100%" height="100%" overflow="visible" style="display: block;" viewBox="0 0 15.5634 15.5634" fill="none" xmlns="http://www.w3.org/2000/svg">
<path id="Union" d="M7.2998 0C11.3314 0 14.5995 3.26822 14.5996 7.2998C14.5996 8.99196 14.0219 10.5481 13.0557 11.7861C13.0681 11.7973 13.0808 11.8083 13.0928 11.8203L15.2998 14.0273C15.6513 14.3788 15.6513 14.9483 15.2998 15.2998C14.9483 15.6513 14.3788 15.6513 14.0273 15.2998L11.8203 13.0928C11.8083 13.0808 11.7973 13.0681 11.7861 13.0557C10.5481 14.022 8.992 14.5996 7.2998 14.5996C3.26821 14.5995 0 11.3314 0 7.2998C0.00011006 3.26827 3.26828 7.35692e-05 7.2998 0ZM7.2998 1.7998C4.26241 1.79988 1.79991 4.26236 1.7998 7.2998C1.7998 10.3373 4.26234 12.7997 7.2998 12.7998C10.3373 12.7998 12.7998 10.3374 12.7998 7.2998C12.7997 4.26232 10.3373 1.7998 7.2998 1.7998Z" fill="var(--fill-0, #475067)"/>
</svg>
