<svg preserveAspectRatio="none" width="100%" height="100%" overflow="visible" style="display: block;" viewBox="0 0 14 14" fill="none" xmlns="http://www.w3.org/2000/svg">
<g id="Group 1261154791">
<path id="Star 1" d="M5.85398 1.24864C6.4704 0.577023 7.5296 0.577023 8.14602 1.24864L8.27786 1.39228C8.62044 1.76553 9.12333 1.94856 9.62568 1.88284L9.819 1.85755C10.7229 1.73929 11.5343 2.42014 11.5748 3.33085L11.5835 3.52563C11.606 4.03176 11.8736 4.49522 12.3006 4.76778L12.465 4.87267C13.2334 5.3631 13.4174 6.40622 12.863 7.1299L12.7444 7.28468C12.4363 7.68686 12.3434 8.21389 12.4954 8.6972L12.5538 8.8832C12.8273 9.75284 12.2977 10.6701 11.4078 10.8682L11.2175 10.9105C10.723 11.0206 10.313 11.3646 10.1188 11.8325L10.044 12.0126C9.69445 12.8545 8.69912 13.2168 7.89017 12.7965L7.71716 12.7066C7.26758 12.473 6.73242 12.473 6.28284 12.7066L6.10983 12.7965C5.30088 13.2168 4.30555 12.8545 3.95601 12.0126L3.88125 11.8325C3.68699 11.3646 3.27703 11.0206 2.7825 10.9105L2.59219 10.8682C1.70234 10.6701 1.17274 9.75284 1.44616 8.8832L1.50464 8.6972C1.65659 8.21389 1.56366 7.68686 1.25557 7.28468L1.13701 7.1299C0.582638 6.40622 0.766567 5.3631 1.53502 4.87267L1.69937 4.76778C2.12644 4.49522 2.39402 4.03176 2.41653 3.52563L2.42519 3.33085C2.46569 2.42014 3.27709 1.73929 4.181 1.85755L4.37432 1.88284C4.87667 1.94856 5.37956 1.76553 5.72214 1.39228L5.85398 1.24864Z" fill="var(--fill-0, #108757)"/>
<path id="path" fill-rule="evenodd" clip-rule="evenodd" d="M9.68922 5.33048C9.81145 5.45404 9.80754 5.65413 9.68057 5.77282L6.56341 8.68693C6.37122 8.86659 6.07268 8.86659 5.88049 8.68692L4.69979 7.58313C4.57282 7.46444 4.56892 7.26435 4.69115 7.14079C4.80859 7.02206 4.99918 7.01834 5.12117 7.13239L5.88049 7.84225C6.07268 8.02191 6.37122 8.02191 6.56341 7.84225L9.25919 5.32207C9.38118 5.20803 9.57177 5.21175 9.68922 5.33048Z" fill="var(--fill-0, white)" stroke="var(--stroke-1, white)" stroke-width="0.777778"/>
</g>
</svg>
