<svg preserveAspectRatio="none" width="100%" height="100%" overflow="visible" style="display: block;" viewBox="0 0 13.0359 13.0349" fill="none" xmlns="http://www.w3.org/2000/svg">
<g id="Vector">
<path d="M10.0906 5.92761C10.0906 5.76198 10.025 5.60261 9.90729 5.48594L7.55 3.12865C7.30625 2.8849 6.91042 2.8849 6.66562 3.12865L0.183334 9.61094C0.0666677 9.72865 0 9.88698 0 10.0526V12.4099C0 12.7547 0.280208 13.0349 0.625 13.0349H2.98229C3.14792 13.0349 3.30729 12.9693 3.42396 12.8516L9.90625 6.36927C10.024 6.25261 10.0896 6.09323 10.0896 5.92761H10.0906ZM2.72499 11.7849H1.25209V10.312L7.10937 4.45469L8.58229 5.92761L2.72499 11.7849Z" fill="var(--fill-0, #1D2539)"/>
<path d="M9.31874 2.24532L10.0552 1.50886L11.5281 2.98178L10.7917 3.71824C10.5479 3.96199 10.5479 4.35782 10.7917 4.60261C10.9135 4.72448 11.074 4.78594 11.2333 4.78594C11.3927 4.78594 11.5531 4.72448 11.675 4.60261L12.8531 3.42449C13.0969 3.18074 13.0969 2.7849 12.8531 2.5401L10.4958 0.182812C10.2521 -0.0609375 9.85625 -0.0609375 9.61146 0.182812L8.43333 1.36094C8.18958 1.60469 8.18958 2.00053 8.43333 2.24532C8.67708 2.48907 9.07291 2.48907 9.3177 2.24532H9.31874Z" fill="var(--fill-0, #1D2539)"/>
<path d="M12.3531 11.7255H6.51979C6.175 11.7255 5.89479 12.0057 5.89479 12.3505C5.89479 12.6953 6.175 12.9755 6.51979 12.9755H12.3531C12.6979 12.9755 12.9781 12.6953 12.9781 12.3505C12.9781 12.0057 12.6979 11.7255 12.3531 11.7255Z" fill="var(--fill-0, #1D2539)"/>
</g>
</svg>
