<svg preserveAspectRatio="none" width="100%" height="100%" overflow="visible" style="display: block;" viewBox="0 0 15.0002 17.5" fill="none" xmlns="http://www.w3.org/2000/svg">
<path id="Vector" d="M9.78376 6.25L9.4953 13.75M5.50491 13.75L5.21645 6.25M13.5231 3.57547C13.8081 3.61851 14.0921 3.66456 14.3751 3.71358M13.5231 3.57547L12.6333 15.1438C12.5581 16.1207 11.7436 16.875 10.7638 16.875H4.23641C3.25666 16.875 2.44208 16.1207 2.36693 15.1438L1.47706 3.57547M13.5231 3.57547C12.5678 3.4312 11.6014 3.32071 10.6251 3.24527M0.625102 3.71358C0.908081 3.66456 1.19208 3.61851 1.47706 3.57547M1.47706 3.57547C2.43242 3.4312 3.39885 3.32071 4.3751 3.24527M10.6251 3.24527V2.48182C10.6251 1.49902 9.86622 0.678526 8.88392 0.647103C8.42445 0.632405 7.96314 0.625 7.5001 0.625C7.03706 0.625 6.57575 0.632405 6.11628 0.647103C5.13398 0.678526 4.3751 1.49902 4.3751 2.48182V3.24527M10.6251 3.24527C9.5939 3.16558 8.55174 3.125 7.5001 3.125C6.44846 3.125 5.4063 3.16558 4.3751 3.24527" stroke="var(--stroke-0, #D92626)" stroke-width="1.25" stroke-linecap="round" stroke-linejoin="round"/>
</svg>
