<svg width="20" height="20" overflow="visible" style="display: block;" viewBox="0 0 20 20" fill="none" xmlns="http://www.w3.org/2000/svg">
<g id=".heroicons-outline/shopping-cart">
<path id="Subtract" d="M4.375 15.625C5.06536 15.625 5.625 16.1846 5.625 16.875C5.625 17.5654 5.06536 18.125 4.375 18.125C3.68464 18.125 3.125 17.5654 3.125 16.875C3.125 16.1846 3.68464 15.625 4.375 15.625ZM15 15.625C15.6904 15.625 16.25 16.1846 16.25 16.875C16.25 17.5654 15.6904 18.125 15 18.125C14.3096 18.125 13.75 17.5654 13.75 16.875C13.75 16.1846 14.3096 15.625 15 15.625ZM3.0293 1.875C3.7369 1.87502 4.35641 2.35062 4.53906 3.03418L4.73242 3.75781C5.02934 3.75268 5.32687 3.75 5.625 3.75C5.92673 3.75 6.22784 3.75353 6.52832 3.75879C6.35427 3.98776 6.25 4.2732 6.25 4.58301C6.25005 4.73033 6.27411 4.87199 6.31738 5.00488C6.08697 5.00171 5.85617 5 5.625 5C5.4379 5 5.25105 5.00085 5.06445 5.00293L6.73047 11.25H15.2041C15.9597 9.66783 16.6332 8.03883 17.2197 6.36914C16.5358 6.20455 15.8461 6.05477 15.1514 5.91895C15.6871 5.81331 16.1097 5.39515 16.2207 4.86133C16.8817 5.0021 17.5382 5.15498 18.1895 5.32129C18.3577 5.36429 18.5009 5.47545 18.584 5.62793C18.667 5.78049 18.6822 5.96132 18.627 6.12598C17.9317 8.19641 17.106 10.2074 16.1602 12.1484C16.0554 12.3632 15.8366 12.5 15.5977 12.5H6.25C5.43393 12.5 4.74201 13.0222 4.48438 13.75H16.875C17.2202 13.75 17.5 14.0298 17.5 14.375C17.5 14.7202 17.2202 15 16.875 15H3.75C3.40482 15 3.125 14.7202 3.125 14.375C3.125 12.921 4.11799 11.6985 5.46289 11.3496L3.33203 3.35645C3.29542 3.21989 3.17072 3.12502 3.0293 3.125H1.875C1.52982 3.125 1.25 2.84518 1.25 2.5C1.25 2.15482 1.52982 1.875 1.875 1.875H3.0293Z" fill="var(--fill-0, white)"/>
<path id="Vector" d="M14.2126 4.21296H11.62V1.62037C11.62 1.41605 11.4539 1.25 11.2496 1.25C11.0453 1.25 10.8792 1.41605 10.8792 1.62037V4.21296H8.28663C8.08231 4.21296 7.91626 4.37901 7.91626 4.58333C7.91626 4.78765 8.08231 4.9537 8.28663 4.9537H10.8792V7.5463C10.8792 7.75062 11.0453 7.91667 11.2496 7.91667C11.4539 7.91667 11.62 7.75062 11.62 7.5463V4.9537H14.2126C14.4169 4.9537 14.5829 4.78765 14.5829 4.58333C14.5829 4.37901 14.4169 4.21296 14.2126 4.21296Z" fill="var(--fill-0, white)" stroke="var(--stroke-0, white)" stroke-width="0.555556"/>
</g>
</svg>
