<svg width="2.49791" height="12.495" overflow="visible" style="display: block;" viewBox="0 0 2.49791 12.495" fill="none" xmlns="http://www.w3.org/2000/svg">
<path id="Vector" d="M1.01562 10.0762C1.17022 10.0453 1.32881 10.0453 1.4834 10.0762C1.55918 10.0911 1.63526 10.1146 1.70703 10.1445C1.77979 10.1744 1.84905 10.2109 1.91406 10.2539C1.97992 10.2978 2.04091 10.3476 2.0957 10.4023C2.15058 10.4572 2.20136 10.5193 2.24414 10.584C2.287 10.6488 2.32351 10.719 2.35352 10.791C2.36848 10.8269 2.3822 10.8639 2.39355 10.9014L2.42188 11.0146C2.4378 11.0913 2.44628 11.1704 2.44629 11.248C2.44629 11.3258 2.43781 11.4048 2.42188 11.4814V11.4824C2.40695 11.5589 2.38341 11.6333 2.35352 11.7051C2.33848 11.7412 2.32211 11.7769 2.30371 11.8115L2.24414 11.9121C2.20022 11.978 2.15049 12.039 2.0957 12.0938C2.04082 12.1486 1.97873 12.1994 1.91406 12.2422C1.8492 12.2851 1.7791 12.3225 1.70703 12.3525C1.67115 12.3675 1.63408 12.3803 1.59668 12.3916L1.4834 12.4199C1.40713 12.4358 1.32819 12.4434 1.25 12.4434H1.24902C1.17143 12.4434 1.09259 12.4349 1.01562 12.4199C0.939181 12.405 0.863949 12.3825 0.791016 12.3525C0.754905 12.3375 0.719255 12.3202 0.68457 12.3018L0.583984 12.2422C0.518115 12.1983 0.457145 12.1486 0.402344 12.0938C0.375062 12.0665 0.349043 12.0373 0.324219 12.0068L0.253906 11.9121C0.211 11.8473 0.173584 11.7771 0.143555 11.7051C0.113739 11.6335 0.0912219 11.5575 0.0751953 11.4814C0.0593475 11.4052 0.0517578 11.3262 0.0517578 11.248C0.0517667 11.1704 0.0602133 11.0916 0.0751953 11.0146C0.0900429 10.9384 0.113441 10.8633 0.143555 10.791C0.173584 10.7189 0.210999 10.6488 0.253906 10.584C0.297805 10.5182 0.347594 10.4571 0.402344 10.4023C0.429627 10.3751 0.458833 10.349 0.489258 10.3242L0.583984 10.2539C0.648809 10.211 0.718993 10.1745 0.791016 10.1445C0.862769 10.1146 0.938868 10.0911 1.01562 10.0762ZM1.01562 5.07617C1.17022 5.04528 1.32881 5.04528 1.4834 5.07617C1.55918 5.09113 1.63526 5.11463 1.70703 5.14453C1.77979 5.17443 1.84905 5.2109 1.91406 5.25391C1.97992 5.29782 2.04091 5.34756 2.0957 5.40234C2.15058 5.45722 2.20136 5.51933 2.24414 5.58398C2.287 5.64877 2.32351 5.71904 2.35352 5.79102C2.36848 5.82692 2.3822 5.86395 2.39355 5.90137L2.42188 6.01465C2.4378 6.09129 2.44628 6.17036 2.44629 6.24805C2.44629 6.32578 2.43781 6.40476 2.42188 6.48145V6.48242C2.40695 6.5589 2.38341 6.63333 2.35352 6.70508C2.33848 6.74115 2.32211 6.77687 2.30371 6.81152L2.24414 6.91211C2.20022 6.97798 2.15049 7.03895 2.0957 7.09375C2.04104 7.14841 1.97842 7.19796 1.91309 7.24219C1.84839 7.28493 1.77888 7.3226 1.70703 7.35254C1.67115 7.36749 1.63408 7.38026 1.59668 7.3916L1.4834 7.41992C1.40713 7.43577 1.32819 7.44336 1.25 7.44336H1.24902C1.17143 7.44336 1.09259 7.43489 1.01562 7.41992C0.939181 7.40503 0.863949 7.38248 0.791016 7.35254C0.754905 7.33749 0.719255 7.32017 0.68457 7.30176L0.583984 7.24219C0.518115 7.19826 0.457145 7.14855 0.402344 7.09375C0.375063 7.06647 0.349043 7.03726 0.324219 7.00684L0.253906 6.91211C0.211 6.84725 0.173584 6.77715 0.143555 6.70508C0.113739 6.63347 0.091222 6.55749 0.0751953 6.48145C0.0593475 6.40518 0.0517578 6.32623 0.0517578 6.24805C0.0517667 6.17043 0.0602134 6.09163 0.0751953 6.01465C0.0900429 5.93843 0.113441 5.86329 0.143555 5.79102C0.173584 5.71894 0.210999 5.64884 0.253906 5.58398C0.297805 5.51818 0.347594 5.45709 0.402344 5.40234C0.429627 5.37507 0.458833 5.34904 0.489258 5.32422L0.583984 5.25391C0.648809 5.21103 0.718993 5.17454 0.791016 5.14453C0.862769 5.11463 0.938868 5.09112 1.01562 5.07617ZM0.790039 2.35059C0.754248 2.33564 0.718957 2.31904 0.68457 2.30078L0.583984 2.24121C0.518116 2.19729 0.457145 2.14757 0.402344 2.09277C0.347681 2.03811 0.297155 1.97549 0.25293 1.91016C0.210327 1.8456 0.173417 1.77577 0.143555 1.7041C0.113736 1.6325 0.0912256 1.55651 0.0751953 1.48047C0.0593475 1.4042 0.0517578 1.32526 0.0517578 1.24707C0.0517622 1.16946 0.0602171 1.09066 0.0751953 1.01367C0.090039 0.937474 0.113452 0.8623 0.143555 0.790039C0.173584 0.717968 0.210999 0.647868 0.253906 0.583008C0.297812 0.517189 0.347582 0.456129 0.402344 0.401367C0.457228 0.346495 0.519325 0.295705 0.583984 0.25293C0.648809 0.210055 0.718987 0.173568 0.791016 0.143555C0.862769 0.113658 0.938868 0.090148 1.01562 0.0751953C1.17023 0.044304 1.3288 0.0442956 1.4834 0.0751953C1.55864 0.0900458 1.63461 0.114411 1.70703 0.143555C1.77981 0.173462 1.84905 0.209919 1.91406 0.25293C1.97992 0.296848 2.04091 0.346579 2.0957 0.401367C2.15059 0.456255 2.20135 0.518334 2.24414 0.583008C2.28701 0.647805 2.3235 0.718041 2.35352 0.790039C2.36848 0.825965 2.3822 0.862948 2.39355 0.900391L2.42188 1.01367C2.43781 1.09034 2.44628 1.16936 2.44629 1.24707C2.44629 1.286 2.44345 1.32521 2.43945 1.36426L2.42188 1.48047C2.40695 1.5571 2.38346 1.63223 2.35352 1.7041C2.33848 1.74018 2.32211 1.7759 2.30371 1.81055L2.24414 1.91113C2.20022 1.97699 2.15049 2.03798 2.0957 2.09277C2.04081 2.14767 1.97874 2.19842 1.91406 2.24121C1.8492 2.28412 1.7791 2.32153 1.70703 2.35156C1.63544 2.38138 1.55944 2.40389 1.4834 2.41992C1.40713 2.43577 1.32819 2.44336 1.25 2.44336H1.24902C1.17143 2.44336 1.09259 2.43489 1.01562 2.41992C0.939402 2.40507 0.863545 2.38079 0.790039 2.35059Z" fill="var(--fill-0, #0F61FF)" stroke="var(--stroke-0, #0F61FF)" stroke-width="0.104167"/>
</svg>
