<svg width="14.5823" height="13.7495" overflow="visible" style="display: block;" viewBox="0 0 14.5823 13.7495" fill="none" xmlns="http://www.w3.org/2000/svg">
<path id="Vector" d="M14.2715 11.1055C14.1313 12.3432 13.1702 13.3027 11.9316 13.4414H11.9268V13.4404L11.9209 13.4414C10.3845 13.612 8.83779 13.6973 7.29102 13.6973C5.74402 13.6973 4.19769 13.6121 2.66113 13.4404H2.64941C1.41093 13.3027 0.449788 12.3432 0.308594 11.1055V11.0947L0.307617 11.0889C0.138038 9.5585 0.0517602 8.00073 0.0517578 6.45996C0.0517578 6.14393 0.308973 5.88672 0.625 5.88672C0.941027 5.88672 1.19824 6.14393 1.19824 6.45996C1.19824 7.77151 1.26185 9.09504 1.38965 10.4033L1.44824 10.9629V10.9678H1.44727L1.44824 10.9736C1.52699 11.677 2.0731 12.2239 2.77637 12.3037H2.78809L3.34863 12.3613C5.96769 12.6153 8.61531 12.6151 11.2344 12.3604L11.7949 12.3027H11.8057C12.51 12.224 13.0549 11.6769 13.1348 10.9736L13.1367 10.9746V10.957C13.3021 9.46942 13.3857 7.95588 13.3857 6.45898C13.3857 6.14339 13.6416 5.88645 13.957 5.88574C14.2731 5.88574 14.5303 6.14296 14.5303 6.45898C14.5303 7.99973 14.4441 9.55752 14.2725 11.0889H14.2715V11.1055ZM6.88574 0.219727C7.11023 -0.00379625 7.47292 -0.00357156 7.69629 0.219727L11.0293 3.55273C11.2527 3.77711 11.2532 4.13988 11.0303 4.36328C10.9185 4.47504 10.7711 4.53223 10.625 4.53223C10.4789 4.53223 10.3315 4.47504 10.2197 4.36328L7.86426 2.00781V9.79102C7.86426 10.1069 7.60787 10.3641 7.29199 10.3643C6.97597 10.3643 6.71875 10.107 6.71875 9.79102V2.00781L4.36328 4.36328C4.13878 4.58682 3.77601 4.58811 3.55273 4.36426C3.32918 4.13974 3.32937 3.7761 3.55273 3.55273L6.88574 0.219727Z" fill="var(--fill-0, white)" stroke="var(--stroke-0, white)" stroke-width="0.104167"/>
</svg>
