<svg width="20" height="20" overflow="visible" style="display: block;" viewBox="0 0 20 20" fill="none" xmlns="http://www.w3.org/2000/svg">
<path id="Vector" d="M5.25263 16.4944L5.97736 16.917C7.18811 17.623 8.56412 18 10 18C14.4183 18 18 14.4183 18 10C18 5.58172 14.4183 2 10 2C5.58172 2 2 5.58172 2 10C2 11.4363 2.37723 12.8128 3.08368 14.0238L3.50606 14.7478L2.85257 17.1494L5.25263 16.4944ZM0.00418019 20L1.35614 15.0315C0.49396 13.5536 0 11.8345 0 10C0 4.47715 4.47715 0 10 0C15.5228 0 20 4.47715 20 10C20 15.5228 15.5228 20 10 20C8.16612 20 6.44753 19.5064 4.96988 18.6447L0.00418019 20ZM6.39134 5.30833C6.52522 5.29892 6.65955 5.29748 6.79361 5.30402C6.84777 5.30758 6.90167 5.31384 6.95561 5.32007C7.11487 5.33846 7.29 5.43545 7.34888 5.56894C7.6472 6.24536 7.93666 6.92565 8.21722 7.60963C8.27912 7.76062 8.24182 7.95633 8.12402 8.1457C8.06422 8.2428 7.9703 8.379 7.8615 8.5183C7.74841 8.663 7.50501 8.9291 7.50501 8.9291C7.50501 8.9291 7.4064 9.0473 7.44357 9.1944C7.45805 9.25 7.50423 9.331 7.5461 9.3991C7.56929 9.4368 7.59082 9.4705 7.60479 9.4938C7.86071 9.9211 8.20472 10.3543 8.62492 10.7616C8.74532 10.8783 8.86212 10.9974 8.98772 11.108C9.45602 11.5209 9.98582 11.8583 10.558 12.1082L10.5631 12.1105C10.6476 12.1469 10.691 12.1668 10.8147 12.2193C10.8771 12.2457 10.9409 12.2685 11.0064 12.2858C11.0301 12.292 11.0544 12.2955 11.0788 12.2972C11.2405 12.3069 11.334 12.2032 11.3739 12.1555C12.0974 11.279 12.1636 11.2218 12.1686 11.2222V11.2238C12.2637 11.1236 12.4132 11.0888 12.5466 11.097C12.6075 11.1007 12.6681 11.1124 12.7235 11.1377C13.2553 11.3803 14.1248 11.7587 14.1248 11.7587L14.7063 12.0201C14.8037 12.0671 14.8926 12.1778 14.8969 12.2854C14.8995 12.3523 14.9067 12.4603 14.8828 12.6579C14.8515 12.9166 14.7728 13.2281 14.6946 13.3913C14.6396 13.5058 14.5684 13.6074 14.4856 13.6934C14.3733 13.81 14.2899 13.8808 14.1549 13.9814C14.0727 14.0426 14.0301 14.0714 14.0301 14.0714C13.8912 14.159 13.8129 14.2028 13.6474 14.2909C13.39 14.428 13.1056 14.5068 12.8143 14.5218C12.6286 14.5313 12.4434 14.5447 12.2579 14.5347C12.2497 14.5342 11.6897 14.4482 11.6897 14.4482C10.2678 14.0742 8.95282 13.3736 7.84936 12.402C7.62375 12.2034 7.41452 11.9885 7.20096 11.7759C6.3119 10.8908 5.63884 9.9364 5.23071 9.0336C5.02945 8.5884 4.90201 8.1116 4.9 7.62098C4.89631 7.01405 5.09501 6.4232 5.46471 5.94186C5.53759 5.84697 5.60676 5.74855 5.72611 5.63586C5.8525 5.51651 5.93294 5.45244 6.01959 5.40811C6.13509 5.34902 6.26195 5.31742 6.39134 5.30833Z" fill="var(--fill-0, white)"/>
</svg>
