<svg preserveAspectRatio="none" width="100%" height="100%" overflow="visible" style="display: block;" viewBox="0 0 28 28" fill="none" xmlns="http://www.w3.org/2000/svg">
<g id="heroicons-solid/check-circle">
<path id="Subtract" fill-rule="evenodd" clip-rule="evenodd" d="M2 14C2 7.37258 7.37258 2 14 2C20.6274 2 26 7.37258 26 14C26 20.6274 20.6274 26 14 26C7.37258 26 2 20.6274 2 14ZM18.4434 11.7673C18.7398 11.3525 18.6437 10.7759 18.2288 10.4796C17.814 10.1833 17.2375 10.2794 16.9412 10.6942L12.9591 16.2691L10.9604 14.2704C10.5999 13.9099 10.0155 13.9099 9.65498 14.2704C9.2945 14.6308 9.2945 15.2153 9.65498 15.5758L12.4242 18.345C12.6161 18.5369 12.8826 18.6346 13.1531 18.6122C13.4235 18.5899 13.6703 18.4496 13.8281 18.2288L18.4434 11.7673Z" fill="var(--fill-0, #0F7EFF)"/>
</g>
</svg>
