<svg preserveAspectRatio="none" width="100%" height="100%" overflow="visible" style="display: block;" viewBox="0 0 5.57532 5.25067" fill="none" xmlns="http://www.w3.org/2000/svg">
<path id="Vector" d="M4.98391 0.442948C4.56471 0.0647093 4.07232 -0.078079 3.59823 0.0408414C3.27209 0.122773 2.9913 0.320839 2.78766 0.604816C2.58402 0.320839 2.30323 0.122773 1.97709 0.0408414C1.503 -0.078079 1.01101 0.0647093 0.591411 0.442948C-0.104214 1.07016 -0.198077 2.26653 0.373059 3.22545C1.35942 4.88198 2.67351 5.22959 2.7292 5.24351C2.74829 5.24829 2.76777 5.25067 2.78766 5.25067C2.80715 5.25067 2.82703 5.24829 2.84613 5.24351C2.90181 5.22959 4.2159 4.88198 5.20226 3.22545C5.7734 2.26613 5.67953 1.07016 4.98391 0.442948Z" fill="var(--fill-0, white)"/>
</svg>
