<svg preserveAspectRatio="none" width="100%" height="100%" overflow="visible" style="display: block;" viewBox="0 0 4.75415 4.47625" fill="none" xmlns="http://www.w3.org/2000/svg">
<path id="Subtract" d="M0.247982 0.00215501C0.17502 -0.00818629 0.101785 0.0191266 0.0534124 0.0747194C0.00504 0.130312 -0.0118872 0.20662 0.00844068 0.277452L0.418329 1.70571C0.471842 1.89218 0.642382 2.02066 0.836378 2.02066H2.60955C2.72965 2.02066 2.82701 2.11802 2.82701 2.23812C2.82701 2.35822 2.72965 2.45558 2.60955 2.45558H0.83638C0.642384 2.45558 0.471845 2.58406 0.418331 2.77053L0.00844068 4.19879C-0.0118872 4.26963 0.00504 4.34593 0.0534124 4.40153C0.101785 4.45712 0.17502 4.48443 0.247982 4.47409C1.94064 4.23418 3.47097 3.49033 4.6822 2.39973C4.728 2.35849 4.75415 2.29975 4.75415 2.23812C4.75415 2.17649 4.728 2.11776 4.6822 2.07652C3.47097 0.985912 1.94064 0.242064 0.247982 0.00215501Z" fill="var(--fill-0, white)"/>
</svg>
