<svg preserveAspectRatio="none" width="100%" height="100%" overflow="visible" style="display: block;" viewBox="0 0 10.5 10.5" fill="none" xmlns="http://www.w3.org/2000/svg">
<g id="Vector">
<path fill-rule="evenodd" clip-rule="evenodd" d="M3 2.25C3.27185 2.25 3.5048 2.44441 3.55343 2.71188L3.74266 3.75267C3.81251 4.13684 4.11316 4.43749 4.49733 4.50734L5.53812 4.69657C5.80559 4.7452 6 4.97815 6 5.25C6 5.52185 5.80559 5.7548 5.53812 5.80343L4.49733 5.99266C4.11316 6.06251 3.81251 6.36316 3.74266 6.74733L3.55343 7.78812C3.5048 8.05559 3.27185 8.25 3 8.25C2.72815 8.25 2.4952 8.05559 2.44657 7.78812L2.25734 6.74733C2.18749 6.36316 1.88684 6.06251 1.50267 5.99266L0.461877 5.80343C0.194413 5.7548 0 5.52185 0 5.25C0 4.97815 0.194413 4.7452 0.461877 4.69657L1.50267 4.50734C1.88684 4.43749 2.18749 4.13684 2.25734 3.75267L2.44657 2.71188C2.4952 2.44441 2.72815 2.25 3 2.25Z" fill="url(#paint0_linear_0_11)"/>
<path fill-rule="evenodd" clip-rule="evenodd" d="M8.25 0C8.50115 0 8.72186 0.166487 8.79086 0.407969L8.93692 0.919199C9.02591 1.23064 9.26936 1.47409 9.5808 1.56308L10.092 1.70914C10.3335 1.77814 10.5 1.99885 10.5 2.25C10.5 2.50115 10.3335 2.72186 10.092 2.79086L9.5808 2.93692C9.26936 3.02591 9.02591 3.26936 8.93692 3.5808L8.79086 4.09203C8.72186 4.33351 8.50115 4.5 8.25 4.5C7.99885 4.5 7.77814 4.33351 7.70914 4.09203L7.56308 3.5808C7.47409 3.26936 7.23064 3.02591 6.9192 2.93692L6.40797 2.79086C6.16649 2.72186 6 2.50115 6 2.25C6 1.99885 6.16649 1.77814 6.40797 1.70914L6.9192 1.56308C7.23064 1.47409 7.47409 1.23064 7.56308 0.919199L7.70914 0.407969C7.77814 0.166487 7.99885 0 8.25 0Z" fill="url(#paint1_linear_0_11)"/>
<path fill-rule="evenodd" clip-rule="evenodd" d="M6.75 7.5C7.00811 7.5 7.2331 7.67567 7.29571 7.92607C7.36073 8.18618 7.56382 8.38927 7.82393 8.45429C8.07433 8.5169 8.25 8.74189 8.25 9C8.25 9.25811 8.07433 9.4831 7.82393 9.54571C7.56382 9.61073 7.36073 9.81382 7.29571 10.0739C7.2331 10.3243 7.00811 10.5 6.75 10.5C6.49189 10.5 6.2669 10.3243 6.20429 10.0739C6.13927 9.81382 5.93618 9.61073 5.67607 9.54571C5.42567 9.4831 5.25 9.25811 5.25 9C5.25 8.74189 5.42567 8.5169 5.67607 8.45429C5.93618 8.38927 6.13927 8.18618 6.20429 7.92607C6.2669 7.67567 6.49189 7.5 6.75 7.5Z" fill="url(#paint2_linear_0_11)"/>
</g>
<defs>
<linearGradient id="paint0_linear_0_11" x1="0" y1="5.25" x2="10.5" y2="5.25" gradientUnits="userSpaceOnUse">
<stop stop-color="#E33FB9"/>
<stop offset="1" stop-color="#9047E9"/>
</linearGradient>
<linearGradient id="paint1_linear_0_11" x1="0" y1="5.25" x2="10.5" y2="5.25" gradientUnits="userSpaceOnUse">
<stop stop-color="#E33FB9"/>
<stop offset="1" stop-color="#9047E9"/>
</linearGradient>
<linearGradient id="paint2_linear_0_11" x1="0" y1="5.25" x2="10.5" y2="5.25" gradientUnits="userSpaceOnUse">
<stop stop-color="#E33FB9"/>
<stop offset="1" stop-color="#9047E9"/>
</linearGradient>
</defs>
</svg>
