<svg preserveAspectRatio="none" width="100%" height="100%" overflow="visible" style="display: block;" viewBox="0 0 6.86694 8.32663" fill="none" xmlns="http://www.w3.org/2000/svg">
<g id="Group">
<path id="Vector" d="M4.67303 1.33445C4.96415 0.975226 5.1617 0.49289 5.1096 0C4.68344 0.0209052 4.1634 0.277367 3.86232 0.636876C3.59199 0.94474 3.35272 1.44727 3.4151 1.9195C3.89348 1.96044 4.37142 1.6836 4.67303 1.33445Z" fill="var(--fill-0, black)"/>
<path id="Vector_2" d="M5.10441 2.01152C4.40969 1.9707 3.819 2.40051 3.48723 2.40051C3.15528 2.40051 2.64724 2.0321 2.09775 2.04203C1.38255 2.05239 0.718932 2.45133 0.355999 3.08583C-0.39049 4.35514 0.159001 6.23797 0.884923 7.27175C1.23745 7.78319 1.6623 8.34633 2.22211 8.3261C2.75103 8.30563 2.95834 7.98822 3.60127 7.98822C4.24373 7.98822 4.43048 8.3261 4.99038 8.31587C5.571 8.30562 5.934 7.80417 6.28652 7.29222C6.69093 6.7092 6.85648 6.14625 6.86689 6.11535C6.85648 6.10511 5.74728 5.68532 5.73699 4.42656C5.72652 3.37258 6.60784 2.87125 6.64932 2.84016C6.15163 2.11398 5.374 2.0321 5.10441 2.01152Z" fill="var(--fill-0, black)"/>
</g>
</svg>
