<svg preserveAspectRatio="none" width="100%" height="100%" overflow="visible" style="display: block;" viewBox="0 0 38 24" fill="none" xmlns="http://www.w3.org/2000/svg">
<g id="credit-card">
<path id="Vector" d="M32.9091 0.693829H5.09091C3.38385 0.693829 2 1.94425 2 3.48673V20.2441C2 21.7866 3.38385 23.037 5.09091 23.037H32.9091C34.6162 23.037 36 21.7866 36 20.2441V3.48673C36 1.94425 34.6162 0.693829 32.9091 0.693829Z" fill="var(--fill-0, white)"/>
<path id="Vector (Stroke)" fill-rule="evenodd" clip-rule="evenodd" d="M4.39669 2.18182C3.10684 2.18182 2.30303 3.03362 2.30303 3.81818V20.1818C2.30303 20.9664 3.10684 21.8182 4.39669 21.8182H33.6033C34.8932 21.8182 35.697 20.9664 35.697 20.1818V3.81818C35.697 3.03362 34.8932 2.18182 33.6033 2.18182H4.39669ZM0 3.81818C0 1.59028 2.10202 0 4.39669 0H33.6033C35.898 0 38 1.59028 38 3.81818V20.1818C38 22.4097 35.898 24 33.6033 24H4.39669C2.10202 24 0 22.4097 0 20.1818V3.81818Z" fill="var(--fill-0, #6FA059)"/>
<g id="CASH">
<path d="M7.16669 13.2987C6.99635 12.8574 6.91119 12.3796 6.91119 11.8653C6.91119 11.351 6.99635 10.8749 7.16669 10.4369C7.33703 9.99562 7.56972 9.624 7.86477 9.32207C8.16286 9.01681 8.5157 8.77791 8.9233 8.60537C9.33089 8.43284 9.76586 8.34657 10.2282 8.34657C10.5567 8.34657 10.8624 8.39302 11.1453 8.48593C11.4312 8.57551 11.6776 8.7016 11.8844 8.86418C12.0943 9.02676 12.2753 9.20262 12.4274 9.39174C12.5795 9.57755 12.7148 9.78327 12.8334 10.0089L11.6928 10.6211C11.559 10.3357 11.3597 10.1001 11.0951 9.91433C10.8305 9.72852 10.5415 9.63562 10.2282 9.63562C9.66244 9.63562 9.19553 9.84631 8.82748 10.2677C8.45943 10.6891 8.27541 11.2216 8.27541 11.8653C8.27541 12.509 8.45943 13.0432 8.82748 13.4679C9.19553 13.8893 9.66244 14.1 10.2282 14.1C10.5415 14.1 10.8305 14.0071 11.0951 13.8213C11.3597 13.6355 11.559 13.3982 11.6928 13.1096L12.8334 13.7118C12.2434 14.8267 11.3749 15.3841 10.2282 15.3841C9.76586 15.3841 9.33089 15.2978 8.9233 15.1253C8.5157 14.9527 8.16286 14.7155 7.86477 14.4136C7.56972 14.1083 7.33703 13.7367 7.16669 13.2987Z" fill="var(--fill-0, #6FA059)"/>
<path d="M12.8973 15.2597L15.3064 8.46104H16.9717L19.3717 15.2597H17.8569L17.4736 14.11H14.8045L14.4121 15.2597H12.8973ZM15.1649 12.8358H17.1086L16.1368 9.90935L15.1649 12.8358Z" fill="var(--fill-0, #6FA059)"/>
<path d="M19.4629 14.2991L20.1838 13.1992C20.4241 13.4712 20.7131 13.6935 21.0507 13.8661C21.3883 14.0353 21.7594 14.1199 22.164 14.1199C22.5107 14.1199 22.7769 14.0469 22.9624 13.9009C23.151 13.7516 23.2453 13.5724 23.2453 13.3634C23.2453 13.2373 23.2043 13.1278 23.1221 13.0349C23.04 12.9387 22.929 12.8607 22.7891 12.801C22.6522 12.7413 22.494 12.6865 22.3145 12.6368C22.1351 12.587 21.9465 12.5372 21.7488 12.4875C21.5511 12.4344 21.3534 12.3763 21.1556 12.3133C20.9579 12.2469 20.7693 12.1623 20.5899 12.0594C20.4104 11.9533 20.2507 11.8305 20.1108 11.6911C19.9739 11.5518 19.8644 11.3743 19.7823 11.1586C19.7002 10.9429 19.6591 10.699 19.6591 10.427C19.6591 9.84299 19.8736 9.35359 20.3024 8.95874C20.7344 8.56058 21.3077 8.3615 22.0225 8.3615C23.0202 8.3615 23.8309 8.67671 24.4544 9.30713L23.7153 10.3672C23.4689 10.1217 23.1875 9.9359 22.8712 9.80981C22.5548 9.68373 22.2324 9.62069 21.9039 9.62069C21.6241 9.62069 21.4051 9.68373 21.2469 9.80981C21.0918 9.93258 21.0142 10.0985 21.0142 10.3075C21.0142 10.4336 21.0644 10.5448 21.1648 10.641C21.2682 10.7339 21.4035 10.8069 21.5708 10.86C21.7412 10.9097 21.9328 10.9661 22.1457 11.0292C22.3617 11.0889 22.5807 11.1486 22.8027 11.2084C23.0248 11.2648 23.2423 11.3477 23.4552 11.4572C23.6712 11.5634 23.8628 11.6878 24.0301 11.8305C24.2004 11.9698 24.3358 12.1573 24.4362 12.3929C24.5396 12.6285 24.5913 12.8972 24.5913 13.1992C24.5913 13.8495 24.3784 14.3771 23.9525 14.7819C23.5297 15.1833 22.9122 15.3841 22.1001 15.3841C20.996 15.3841 20.1169 15.0224 19.4629 14.2991Z" fill="var(--fill-0, #6FA059)"/>
<path d="M25.4856 15.2597V8.46104H26.8133V11.1337H29.7562V8.46104H31.093V15.2597H29.7562V12.4078H26.8133V15.2597H25.4856Z" fill="var(--fill-0, #6FA059)"/>
</g>
</g>
</svg>
