<svg preserveAspectRatio="none" width="100%" height="100%" overflow="visible" style="display: block;" viewBox="0 0 14.4011 8.05867" fill="none" xmlns="http://www.w3.org/2000/svg">
<path id="Exclude" fill-rule="evenodd" clip-rule="evenodd" d="M4.67004 0V0.740268C4.67004 0.915486 4.81557 1.05753 4.99509 1.05753C5.17461 1.05753 5.32014 0.915486 5.32014 0.740268V0H13.805C14.1342 0 14.4011 0.266895 14.4011 0.596128V7.46255C14.4011 7.79178 14.1342 8.05867 13.805 8.05867H5.32014V7.50843C5.32014 7.33322 5.17461 7.19118 4.99509 7.19118C4.81557 7.19118 4.67004 7.33322 4.67004 7.50843V8.05867H0V6.09086C0 5.88385 0.171936 5.71604 0.384028 5.71604C1.33845 5.71604 2.11217 4.96087 2.11217 4.02934C2.11217 3.0978 1.33845 2.34264 0.384028 2.34264C0.171936 2.34264 0 2.17482 0 1.96782V0H4.67004ZM4.67004 1.79779C4.67004 1.62258 4.81557 1.48054 4.99509 1.48054C5.17461 1.48054 5.32014 1.62258 5.32014 1.79779V2.64382C5.32014 2.81903 5.17461 2.96107 4.99509 2.96107C4.81557 2.96107 4.67004 2.81903 4.67004 2.64382V1.79779ZM4.67004 3.70134C4.67004 3.52612 4.81557 3.38408 4.99509 3.38408C5.17461 3.38408 5.32014 3.52612 5.32014 3.70134V4.54736C5.32014 4.72258 5.17461 4.86462 4.99509 4.86462C4.81557 4.86462 4.67004 4.72258 4.67004 4.54736V3.70134ZM4.99509 5.28763C4.81557 5.28763 4.67004 5.42967 4.67004 5.60489V6.45091C4.67004 6.62613 4.81557 6.76817 4.99509 6.76817C5.17461 6.76817 5.32014 6.62613 5.32014 6.45091V5.60489C5.32014 5.42967 5.17461 5.28763 4.99509 5.28763Z" fill="var(--fill-0, #41A69E)"/>
</svg>
