<svg preserveAspectRatio="none" width="100%" height="100%" overflow="visible" style="display: block;" viewBox="0 0 44.0362 9.12938" fill="none" xmlns="http://www.w3.org/2000/svg">
<g id="New Release">
<path d="M3.18062 6.81678C3.94396 6.81678 4.7582 6.57477 5.35616 6.14451L4.85998 4.94788C4.47831 5.25712 3.85491 5.41847 3.30784 5.41847C2.16282 5.41847 1.61575 4.67897 1.61575 4.12772C1.61575 4.08738 1.61575 4.00671 1.61575 3.96637H6.18312C6.23401 3.76469 6.31034 3.28066 6.31034 2.89075C6.31034 1.07563 5.12715 0 3.54957 0C1.50125 0 0 1.78823 0 3.89915C0 5.71426 1.2468 6.81678 3.18062 6.81678ZM4.84726 2.78318H1.79387C1.92109 2.07058 2.56994 1.39831 3.44779 1.39831C4.41469 1.39831 4.8727 1.98991 4.8727 2.64873C4.8727 2.67562 4.8727 2.75629 4.85998 2.78318H4.84726Z" fill="var(--fill-0, #404553)"/>
<path d="M12.401 6.65544L10.8998 3.321L13.6224 0.161344H11.7649L10.0728 2.15125L9.23313 0.161344H7.47743L8.86418 3.321L5.9889 6.65544H7.83366L9.70386 4.46385L10.658 6.65544H12.401Z" fill="var(--fill-0, #404553)"/>
<path d="M16.9545 6.81678C19.041 6.81678 20.186 4.63864 20.186 2.68907C20.186 0.968064 19.2445 0 17.8578 0C17.1199 0 16.5219 0.322688 16.0003 0.968064L16.1784 0.161344H14.5626L12.6797 9.12938H14.2955L14.9952 5.79494C15.4023 6.44031 16.1275 6.81678 16.9545 6.81678ZM16.6873 5.29746C16.0385 5.29746 15.5168 4.98822 15.2497 4.54452L15.7331 2.29915C16.0639 1.85546 16.5728 1.51932 17.1326 1.51932C17.9214 1.51932 18.4939 2.11092 18.4939 3.03864C18.4939 4.23528 17.756 5.29746 16.6873 5.29746Z" fill="var(--fill-0, #404553)"/>
<path d="M22.2344 6.65544L23.125 2.39327C23.4812 1.96302 24.0537 1.61344 24.6517 1.61344C24.9061 1.61344 25.1351 1.66722 25.2369 1.69411L25.5931 0C24.6135 0 23.9519 0.389915 23.4176 1.0084L23.5957 0.161344H21.9799L20.6186 6.65544H22.2344Z" fill="var(--fill-0, #404553)"/>
<path d="M28.6255 6.81678C29.3889 6.81678 30.2031 6.57477 30.8011 6.14451L30.3049 4.94788C29.9232 5.25712 29.2998 5.41847 28.7528 5.41847C27.6077 5.41847 27.0607 4.67897 27.0607 4.12772C27.0607 4.08738 27.0607 4.00671 27.0607 3.96637H31.628C31.6789 3.76469 31.7553 3.28066 31.7553 2.89075C31.7553 1.07563 30.5721 0 28.9945 0C26.9462 0 25.4449 1.78823 25.4449 3.89915C25.4449 5.71426 26.6917 6.81678 28.6255 6.81678ZM30.2922 2.78318H27.2388C27.366 2.07058 28.0149 1.39831 28.8927 1.39831C29.8596 1.39831 30.3176 1.98991 30.3176 2.64873C30.3176 2.67562 30.3176 2.75629 30.3049 2.78318H30.2922Z" fill="var(--fill-0, #404553)"/>
<path d="M34.9071 6.81678C36.5864 6.81678 37.566 5.78149 37.566 4.54452C37.566 2.56806 34.4363 2.74285 34.4363 1.94957C34.4363 1.61344 34.7544 1.34453 35.3269 1.34453C36.0775 1.34453 36.8409 1.78823 37.1335 2.19159L37.9732 1.04874C37.3879 0.416805 36.4083 0 35.3651 0C33.7239 0 32.8333 1.06218 32.8333 2.19159C32.8333 4.14116 35.963 3.92604 35.963 4.79998C35.963 5.16301 35.6195 5.47225 35.0724 5.47225C34.1819 5.47225 33.2913 4.90754 32.9224 4.4504L32.0191 5.64704C32.7061 6.41342 33.7875 6.81678 34.9071 6.81678Z" fill="var(--fill-0, #404553)"/>
<path d="M40.9701 6.81678C42.6495 6.81678 43.6291 5.78149 43.6291 4.54452C43.6291 2.56806 40.4994 2.74285 40.4994 1.94957C40.4994 1.61344 40.8174 1.34453 41.3899 1.34453C42.1406 1.34453 42.9039 1.78823 43.1965 2.19159L44.0362 1.04874C43.451 0.416805 42.4714 0 41.4281 0C39.7869 0 38.8963 1.06218 38.8963 2.19159C38.8963 4.14116 42.0261 3.92604 42.0261 4.79998C42.0261 5.16301 41.6826 5.47225 41.1355 5.47225C40.2449 5.47225 39.3543 4.90754 38.9854 4.4504L38.0821 5.64704C38.7691 6.41342 39.8505 6.81678 40.9701 6.81678Z" fill="var(--fill-0, #404553)"/>
</g>
</svg>
