<svg preserveAspectRatio="none" width="100%" height="100%" overflow="visible" style="display: block;" viewBox="0 0 18.2454 5.72784" fill="none" xmlns="http://www.w3.org/2000/svg">
<g id="Group">
<path id="Vector" d="M3.20824 0C5.04939 0 6.02127 1.0957 6.02127 2.51961C6.02127 4.20302 4.69914 5.72784 2.81304 5.72784C0.926938 5.72784 0 4.63214 0 3.22011C0 1.5367 1.32214 0.000847924 3.20824 0.000847924V0ZM3.15142 1.5367C2.3271 1.5367 1.78433 2.30505 1.78433 3.12937C1.78433 3.79595 2.20243 4.19115 2.88004 4.19115C3.69333 4.19115 4.24712 3.4228 4.24712 2.59848C4.24712 1.9319 3.82902 1.5367 3.15142 1.5367Z" fill="var(--fill-0, #222222)"/>
<path id="Vector_2" d="M10.3372 2.53063C10.3601 2.42886 10.394 2.27112 10.394 2.13543C10.394 1.70631 10.0328 1.5367 9.64859 1.5367C9.1406 1.5367 8.74455 1.80808 8.48504 2.06759L7.70567 5.59215H5.96628L7.17478 0.135691H8.91416L8.75558 0.802271C9.17367 0.418096 9.71559 0 10.5289 0C11.6246 0 12.2801 0.58771 12.2801 1.41203C12.2801 1.5138 12.2462 1.75126 12.2233 1.86405L11.399 5.59215H9.65961L10.3372 2.53063Z" fill="var(--fill-0, #222222)"/>
<path id="Vector_3" d="M15.7377 0C17.1158 0 18.2454 0.870116 18.2454 2.46279C18.2454 2.80201 18.1776 3.22011 18.1326 3.41177H14.2688V3.47962C14.2688 3.751 14.675 4.38366 15.5791 4.38366C16.0311 4.38366 16.562 4.25899 16.8554 4.04443L17.3863 5.19695C16.8554 5.55823 16.11 5.72784 15.4434 5.72784C13.704 5.72784 12.5405 4.8238 12.5405 3.25403C12.5405 1.50277 13.8736 0.000847924 15.7377 0.000847924V0ZM16.7096 2.20328C16.7096 1.85303 16.4161 1.34503 15.6588 1.34503C15.0032 1.34503 14.5292 1.8649 14.4384 2.283H16.6977C16.7087 2.2601 16.7087 2.22618 16.7087 2.20413L16.7096 2.20328Z" fill="var(--fill-0, #222222)"/>
</g>
</svg>
