<svg preserveAspectRatio="none" width="100%" height="100%" overflow="visible" style="display: block;" viewBox="0 0 27.0533 15.6812" fill="none" xmlns="http://www.w3.org/2000/svg">
<g id="Group">
<path id="Vector" d="M27.0245 7.66684C26.9923 7.05538 26.8693 6.44986 26.6463 5.87233C26.3181 5.02257 25.7838 4.27542 25.1282 3.64615C24.7805 3.31286 24.4481 2.95668 24.063 2.66494C23.3812 2.14762 22.6078 1.75751 21.8046 1.46662C20.2654 0.910292 18.66 0.579546 17.0444 0.33615C14.44 -0.0573525 11.8331 -0.169297 9.23884 0.351416C6.89818 0.821245 4.6296 1.93391 2.77827 3.44856C2.33303 3.81238 1.74447 4.41535 1.42475 4.89536C0.672516 6.02413 1.54942 7.40394 2.07861 8.42586C2.5459 9.32651 3.02506 10.2212 3.51524 11.11C3.95369 11.9046 4.36839 12.7179 5.0002 13.382C6.48093 14.95 8.52731 15.5327 10.628 15.6514C12.3283 15.7472 14.033 15.5971 15.7257 15.408C17.136 15.2503 18.543 15.0662 19.9397 14.8152C21.1923 14.5905 22.4984 14.3869 23.639 13.7933C24.7746 13.2013 25.7617 12.2964 26.3333 11.1405C26.6573 10.4858 26.8354 9.74884 26.9507 9.03053C27.0228 8.57766 27.0491 8.11971 27.0253 7.66599L27.0245 7.66684Z" fill="var(--fill-0, #108757)"/>
<path id="Vector_2" d="M0.842843 7.45991C0.74786 6.48972 0.990406 5.52038 1.73246 4.73168C1.92582 4.52645 2.14208 4.34242 2.377 4.18553C2.84937 3.87089 3.35821 3.60121 3.88147 3.38156C4.91611 2.9465 5.9957 2.59201 7.06765 2.25787C8.12095 1.92967 9.18867 1.64641 10.2725 1.43779C10.7915 1.33772 11.3131 1.25461 11.8372 1.18931C13.7937 0.945062 15.7756 0.942518 17.7389 1.08584C19.7021 1.22916 20.1364 1.06803 23.1563 2.3308C24.2257 2.77773 25.1925 3.5147 25.9108 4.43486C26.6334 5.3601 27.0167 6.43375 27.0498 7.62613C27.088 9.01442 26.8208 10.7072 25.9499 11.7944C24.3818 13.7492 21.6968 14.1113 19.2866 14.2495C17.6312 14.3445 15.969 14.3123 14.3118 14.3131C13.4985 14.3131 12.6844 14.3123 11.8711 14.3089C8.65693 14.297 5.53265 13.0792 2.97149 11.177C2.89771 11.1219 2.82308 11.071 2.75354 11.0108C1.75451 10.1466 0.975143 8.80325 0.843692 7.45991H0.842843Z" fill="var(--fill-0, #C52A26)"/>
<path id="Vector_3" d="M1.12695 11.5535C0.767367 11.1498 0.475631 10.691 0.277183 10.1737C-0.200279 8.93131 -0.0289671 7.52182 0.54687 6.34216C1.19225 5.02087 2.1124 4.29662 3.51086 3.87428C7.48405 2.67427 11.7329 2.96177 15.8621 2.54197C17.4717 2.3783 19.0746 2.10522 20.6927 2.0891C21.3177 2.08317 21.9538 2.11709 22.544 2.32317C23.2411 2.56657 23.8373 3.03724 24.3555 3.56304C25.0679 4.2856 25.6658 5.1396 25.9863 6.103C26.3069 7.06641 26.3349 8.1443 25.9541 9.08481C25.2451 10.8344 23.3412 11.7562 21.5442 12.3354C19.1891 13.0945 16.7424 13.5389 14.2889 13.8603C11.3207 14.2487 8.2753 14.4539 5.35626 13.7924C3.78479 13.4362 2.17176 12.7264 1.12864 11.5544L1.12695 11.5535Z" fill="var(--fill-0, #F06298)"/>
<path id="Vector_4" d="M10.8789 2.2231C11.6354 2.09504 12.4156 1.94494 13.2102 1.79398C14.7851 1.49461 16.2243 1.06888 17.5227 1.06888C19.7242 1.06888 21.5018 1.49716 22.7663 2.34522C24.5099 3.51471 24.8805 5.24561 24.8839 6.49227C24.8898 8.45554 24.1087 10.0762 22.5619 11.3101C20.4646 12.9842 17.0605 13.8001 12.9753 13.6076C9.51946 13.4447 6.39603 12.6586 4.18003 11.3932C2.68573 10.5401 0.732637 9.01188 0.731789 6.784C0.731789 3.79627 4.26823 3.34255 10.8772 2.22225L10.8789 2.2231Z" fill="var(--fill-0, #F3E008)"/>
</g>
</svg>
