<svg preserveAspectRatio="none" width="100%" height="100%" overflow="visible" style="display: block;" viewBox="0 0 27.2146 6.75146" fill="none" xmlns="http://www.w3.org/2000/svg">
<g id="Group">
<path id="Vector" d="M24.6263 0C23.9038 0 23.2474 0.234915 22.7428 0.668277L22.5977 0.155196H21.3223V6.60814H22.9446V3.10138C22.9446 2.35508 23.4441 1.59861 24.3999 1.59861C25.147 1.59861 25.5923 2.12441 25.5923 3.00555V6.60729H27.2146V2.88597C27.2146 1.13302 26.1986 0 24.6263 0Z" fill="var(--fill-0, #222222)"/>
<path id="Vector_2" d="M10.0622 0C8.24308 0 6.81832 1.48242 6.81832 3.37531C6.81832 5.26819 8.24308 6.75146 10.0622 6.75146C11.8813 6.75146 13.306 5.26819 13.306 3.37531C13.306 1.48242 11.8813 0 10.0622 0ZM10.0622 5.15285C9.13609 5.15285 8.46442 4.40486 8.46442 3.37531C8.46442 2.34575 9.13609 1.59861 10.0622 1.59861C10.9883 1.59861 11.6608 2.34575 11.6608 3.37531C11.6608 4.40486 10.9891 5.15285 10.0622 5.15285Z" fill="var(--fill-0, #222222)"/>
<path id="Vector_3" d="M3.30407 0C2.58152 0 1.92511 0.234915 1.42051 0.668277L1.27549 0.155196H0V6.60814H1.62235V3.10138C1.62235 2.35508 2.12186 1.59861 3.07679 1.59861C3.82308 1.59861 4.26917 2.12441 4.26917 3.00555V6.60729H5.89152V2.88597C5.89152 1.13302 4.87554 0 3.30322 0" fill="var(--fill-0, #222222)"/>
<path id="Vector_4" d="M17.1522 0C15.333 0 13.9083 1.48242 13.9083 3.37531C13.9083 5.26819 15.333 6.75146 17.1522 6.75146C18.9713 6.75146 20.396 5.26819 20.396 3.37531C20.396 1.48242 18.9713 0 17.1522 0ZM17.1522 5.15285C16.2261 5.15285 15.5544 4.40486 15.5544 3.37531C15.5544 2.34575 16.2269 1.59861 17.1522 1.59861C18.0774 1.59861 18.7499 2.34575 18.7499 3.37531C18.7499 4.40486 18.0774 5.15285 17.1522 5.15285Z" fill="var(--fill-0, #222222)"/>
</g>
</svg>
