<svg preserveAspectRatio="none" width="100%" height="100%" overflow="visible" style="display: block;" viewBox="0 0 355 5" fill="none" xmlns="http://www.w3.org/2000/svg">
<path id="Vector" d="M3.69792 2.5L0 5V0H355V5L351.302 2.5C349.845 1.51516 349.117 1.02275 348.319 0.873627C347.846 0.785327 347.362 0.785327 346.889 0.873627C346.091 1.02275 345.363 1.51516 343.906 2.5C342.45 3.48484 341.721 3.97725 340.923 4.12637C340.451 4.21467 339.966 4.21467 339.494 4.12637C338.696 3.97725 337.967 3.48484 336.51 2.5C335.054 1.51516 334.325 1.02275 333.527 0.873627C333.055 0.785327 332.57 0.785327 332.098 0.873627C331.3 1.02275 330.571 1.51516 329.115 2.5C327.658 3.48484 326.929 3.97725 326.131 4.12637C325.659 4.21467 325.174 4.21467 324.702 4.12637C323.904 3.97725 323.175 3.48484 321.719 2.5C320.262 1.51516 319.534 1.02275 318.736 0.873627C318.263 0.785327 317.779 0.785327 317.306 0.873627C316.508 1.02275 315.78 1.51516 314.323 2.5C312.866 3.48484 312.138 3.97725 311.34 4.12637C310.867 4.21467 310.383 4.21467 309.91 4.12637C309.112 3.97725 308.384 3.48484 306.927 2.5C305.47 1.51516 304.742 1.02275 303.944 0.873627C303.471 0.785327 302.987 0.785327 302.514 0.873627C301.716 1.02275 300.988 1.51516 299.531 2.5C298.075 3.48484 297.346 3.97725 296.548 4.12637C296.076 4.21467 295.591 4.21467 295.119 4.12637C294.321 3.97725 293.592 3.48484 292.135 2.5C290.679 1.51516 289.95 1.02275 289.152 0.873627C288.68 0.785327 288.195 0.785327 287.723 0.873627C286.925 1.02275 286.196 1.51516 284.74 2.5C283.283 3.48484 282.554 3.97725 281.756 4.12637C281.284 4.21467 280.799 4.21467 280.327 4.12637C279.529 3.97725 278.8 3.48484 277.344 2.5C275.887 1.51516 275.159 1.02275 274.361 0.873627C273.888 0.785327 273.404 0.785327 272.931 0.873627C272.133 1.02275 271.405 1.51516 269.948 2.5C268.491 3.48484 267.763 3.97725 266.965 4.12637C266.492 4.21467 266.008 4.21467 265.535 4.12637C264.737 3.97725 264.009 3.48484 262.552 2.5C261.095 1.51516 260.367 1.02274 259.569 0.873625C259.096 0.785325 258.612 0.785325 258.139 0.873625C257.341 1.02274 256.613 1.51516 255.156 2.5C253.7 3.48484 252.971 3.97726 252.173 4.12638C251.701 4.21467 251.216 4.21467 250.744 4.12638C249.946 3.97726 249.217 3.48484 247.76 2.5C246.304 1.51517 245.575 1.02275 244.777 0.87363C244.305 0.785327 243.82 0.785328 243.348 0.873631C242.55 1.02275 241.821 1.51517 240.365 2.5C238.908 3.48483 238.179 3.97725 237.381 4.12637C236.909 4.21467 236.424 4.21467 235.952 4.12637C235.154 3.97725 234.425 3.48483 232.969 2.5C231.512 1.51516 230.784 1.02275 229.986 0.873627C229.513 0.785327 229.029 0.785327 228.556 0.873627C227.758 1.02275 227.03 1.51516 225.573 2.5C224.116 3.48484 223.388 3.97725 222.59 4.12637C222.117 4.21467 221.633 4.21467 221.16 4.12637C220.362 3.97725 219.634 3.48484 218.177 2.5C216.72 1.51516 215.992 1.02275 215.194 0.873627C214.721 0.785327 214.237 0.785327 213.764 0.873627C212.966 1.02275 212.238 1.51516 210.781 2.5C209.325 3.48484 208.596 3.97725 207.798 4.12637C207.326 4.21467 206.841 4.21467 206.369 4.12637C205.571 3.97725 204.842 3.48484 203.385 2.5C201.929 1.51516 201.2 1.02275 200.402 0.873627C199.93 0.785327 199.445 0.785327 198.973 0.873627C198.175 1.02275 197.446 1.51516 195.99 2.5C194.533 3.48484 193.804 3.97725 193.006 4.12637C192.534 4.21467 192.049 4.21467 191.577 4.12637C190.779 3.97725 190.05 3.48484 188.594 2.5C187.137 1.51516 186.409 1.02275 185.611 0.873627C185.138 0.785327 184.654 0.785327 184.181 0.873627C183.383 1.02275 182.655 1.51516 181.198 2.5C179.741 3.48484 179.013 3.97725 178.215 4.12637C177.742 4.21467 177.258 4.21467 176.785 4.12637C175.987 3.97725 175.259 3.48484 173.802 2.5C172.345 1.51516 171.617 1.02275 170.819 0.873627C170.346 0.785327 169.862 0.785327 169.389 0.873627C168.591 1.02275 167.863 1.51516 166.406 2.5C164.95 3.48484 164.221 3.97725 163.423 4.12637C162.951 4.21467 162.466 4.21467 161.994 4.12637C161.196 3.97725 160.467 3.48484 159.01 2.5C157.554 1.51516 156.825 1.02275 156.027 0.873627C155.555 0.785327 155.07 0.785327 154.598 0.873627C153.8 1.02275 153.071 1.51516 151.615 2.5C150.158 3.48484 149.429 3.97725 148.631 4.12637C148.159 4.21467 147.674 4.21467 147.202 4.12637C146.404 3.97725 145.675 3.48484 144.219 2.5C142.762 1.51516 142.034 1.02275 141.236 0.873627C140.763 0.785327 140.279 0.785327 139.806 0.873627C139.008 1.02275 138.28 1.51516 136.823 2.5C135.366 3.48484 134.638 3.97726 133.84 4.12637C133.367 4.21467 132.883 4.21467 132.41 4.12638C131.612 3.97726 130.884 3.48484 129.427 2.5C127.97 1.51522 127.242 1.02274 126.444 0.873628C125.971 0.785326 125.487 0.785327 125.014 0.873628C124.216 1.02275 123.488 1.51517 122.031 2.5C120.575 3.48483 119.846 3.97725 119.048 4.12637C118.576 4.21467 118.091 4.21467 117.619 4.12637C116.821 3.97725 116.092 3.48483 114.635 2.5C113.179 1.51516 112.45 1.02275 111.652 0.873627C111.18 0.785327 110.695 0.785327 110.223 0.873627C109.425 1.02275 108.696 1.51516 107.24 2.5C105.783 3.48484 105.054 3.97725 104.256 4.12637C103.784 4.21467 103.299 4.21467 102.827 4.12637C102.029 3.97725 101.3 3.48484 99.8437 2.5C98.387 1.51516 97.6586 1.02275 96.8606 0.873627C96.3881 0.785327 95.9036 0.785327 95.431 0.873627C94.633 1.02275 93.9047 1.51516 92.4479 2.5C90.9912 3.48484 90.2628 3.97725 89.4648 4.12637C88.9922 4.21467 88.5078 4.21467 88.0352 4.12637C87.2372 3.97725 86.5088 3.48484 85.0521 2.5C83.5953 1.51516 82.867 1.02275 82.069 0.873627C81.5964 0.785327 81.1119 0.785327 80.6394 0.873627C79.8414 1.02275 79.113 1.51516 77.6562 2.5C76.1995 3.48484 75.4711 3.97725 74.6731 4.12637C74.2006 4.21467 73.7161 4.21467 73.2435 4.12637C72.4455 3.97725 71.7172 3.48484 70.2604 2.5C68.8037 1.51516 68.0753 1.02275 67.2773 0.873627C66.8047 0.785327 66.3203 0.785327 65.8477 0.873627C65.0497 1.02274 64.3213 1.51517 62.8646 2.5C61.4079 3.48483 60.6795 3.97726 59.8815 4.12637C59.4089 4.21467 58.9244 4.21467 58.4519 4.12637C57.6539 3.97726 56.9255 3.48483 55.4687 2.5C54.012 1.51517 53.2836 1.02274 52.4856 0.873627C52.0131 0.785327 51.5286 0.785327 51.056 0.873627C50.258 1.02274 49.5296 1.51517 48.0729 2.5C46.6162 3.48483 45.8878 3.97726 45.0898 4.12637C44.6172 4.21467 44.1328 4.21467 43.6602 4.12637C42.8622 3.97726 42.1338 3.48483 40.6771 2.5C39.2204 1.51517 38.492 1.02274 37.694 0.873627C37.2214 0.785327 36.7369 0.785327 36.2644 0.873627C35.4664 1.02274 34.738 1.51517 33.2812 2.5C31.8245 3.48484 31.0961 3.97725 30.2981 4.12637C29.8256 4.21467 29.3411 4.21467 28.8685 4.12637C28.0705 3.97725 27.3422 3.48484 25.8854 2.5C24.4287 1.51516 23.7003 1.02275 22.9023 0.873627C22.4297 0.785327 21.9453 0.785327 21.4727 0.873627C20.6747 1.02275 19.9463 1.51516 18.4896 2.5C17.0328 3.48484 16.3045 3.97725 15.5065 4.12637C15.0339 4.21467 14.5494 4.21467 14.0769 4.12637C13.2789 3.97725 12.5505 3.48484 11.0937 2.5C9.63701 1.51516 8.90864 1.02275 8.11062 0.873627C7.63807 0.785327 7.15359 0.785327 6.68105 0.873627C5.88302 1.02275 5.15465 1.51516 3.69792 2.5Z" fill="var(--fill-0, white)"/>
</svg>
