<svg preserveAspectRatio="none" width="100%" height="100%" overflow="visible" style="display: block;" viewBox="0 0 21.875 10.089" fill="none" xmlns="http://www.w3.org/2000/svg">
<g id="Group">
<g id="Vector">
</g>
<path id="Vector_2" d="M6.35466 2.76527L5.68671 3.45313L5.01998 2.76527H2.4579L1.66075 3.60214V2.76527H2.8703e-05V10.089H1.86918V5.00489L2.35308 4.55911H4.24904V10.089H6.1188V5.07909L6.6222 4.55911H8.44625V10.089H10.3154V3.95299L9.16539 2.76527H6.35466Z" fill="var(--fill-0, #FCEA03)"/>
<path id="Vector_3" d="M13.2131 4.35651H15.0219V5.86741H11.9887L10.8381 7.0545V8.83513L11.9887 10.0222H14.4466L15.2571 9.17277V10.0222H16.8258V3.88494L15.6752 2.69786H12.0801L10.9295 3.88494V5.07203H12.6944V4.89221L13.2131 4.35651ZM15.0219 8.07937L14.5514 8.49749H12.6426V6.90611H15.0219V8.07937Z" fill="var(--fill-0, #FCEA03)"/>
<path id="Vector_4" d="M17.4807 10.0213H18.8319L19.3499 9.48745V0.000171821H17.4807V10.0213Z" fill="var(--fill-0, #FCEA03)"/>
<path id="Vector_5" d="M20.0046 10.0716H21.3563L21.875 9.53783V0.050549H20.0046V10.0716Z" fill="var(--fill-0, #FCEA03)"/>
</g>
</svg>
