<svg preserveAspectRatio="none" width="100%" height="100%" overflow="visible" style="display: block;" viewBox="0 0 30.8683 10.1028" fill="none" xmlns="http://www.w3.org/2000/svg">
<g id="Group">
<path id="Vector" d="M18.3956 0.000579834H15.8457L15.0485 0.837453V0.000579834H13.3878V10.1028H14.7389L15.257 9.56834V7.32432H18.395L19.545 6.13786V1.18704L18.395 0.000579834H18.3956ZM17.663 5.57009H15.2576V2.23895L15.7415 1.79442H17.663V5.57072V5.57009Z" fill="var(--fill-0, #FCEA03)"/>
<g id="Group_2">
<path id="Vector_2" d="M4.87673 7.32437L6.02736 6.13729V4.37048L1.88256 2.05038V1.4298L4.58542 1.42351V2.34086L6.15778 2.34715V1.1871L4.75911 9.45727e-06H1.17683L0.0396137 1.1871V2.9539L4.17039 5.274V5.89458H1.75214V5.05834H0V6.13729L1.15062 7.32437H4.87673Z" fill="var(--fill-0, #FCEA03)"/>
<path id="Vector_3" d="M10.2244 7.32436L11.0221 6.48812V7.32436H12.6822V0H10.8125V5.08537L10.3292 5.53053H8.42041V0H6.55065V6.13728L7.70127 7.32436H10.2244Z" fill="var(--fill-0, #FCEA03)"/>
<path id="Vector_4" d="M21.2599 0L20.1227 1.18709V6.13728L21.2599 7.32436H24.9726L26.1099 6.13728V4.77476H24.3059V5.75939H21.9529V4.01963H26.1105V1.18709L24.9733 0H21.2599ZM24.3059 3.04883H21.9529V1.56497H24.3059V3.04883Z" fill="var(--fill-0, #FCEA03)"/>
<path id="Vector_5" d="M29.2728 0L28.3184 0.984629V0H26.6589V7.32373H28.0149L28.528 6.79495V2.37418L29.0771 1.84791H30.8683V0H29.2728Z" fill="var(--fill-0, #FCEA03)"/>
</g>
</g>
</svg>
