<svg width="20" height="20" overflow="visible" style="display: block;" viewBox="0 0 20 20" fill="none" xmlns="http://www.w3.org/2000/svg">
<g id="heroicons-outline/arrows-right-left">
<path id="Vector (Stroke)" d="M5.80762 9.55762C6.05169 9.31354 6.44831 9.31354 6.69238 9.55762C6.93646 9.80169 6.93646 10.1983 6.69238 10.4424L4.00977 13.125H13.75C14.0952 13.125 14.375 13.4048 14.375 13.75C14.375 14.0952 14.0952 14.375 13.75 14.375H4.00977L6.69238 17.0576C6.93646 17.3017 6.93646 17.6983 6.69238 17.9424C6.4483 18.1865 6.05169 18.1865 5.80762 17.9424L2.05762 14.1924C1.81354 13.9483 1.81354 13.5517 2.05762 13.3076L5.80762 9.55762ZM13.3076 2.05762C13.5517 1.81354 13.9483 1.81354 14.1924 2.05762L17.9424 5.80762C18.0596 5.92483 18.125 6.08424 18.125 6.25C18.125 6.41576 18.0596 6.57517 17.9424 6.69238L14.1924 10.4424C13.9483 10.6865 13.5517 10.6865 13.3076 10.4424C13.0635 10.1983 13.0635 9.80169 13.3076 9.55762L15.9902 6.875H6.25C5.90482 6.875 5.625 6.59518 5.625 6.25C5.625 5.90482 5.90482 5.625 6.25 5.625H15.9902L13.3076 2.94238C13.0635 2.6983 13.0635 2.30169 13.3076 2.05762Z" fill="var(--fill-0, #1D2539)"/>
</g>
</svg>
