<svg width="14.839" height="15.7774" overflow="visible" style="display: block;" viewBox="0 0 14.839 15.7774" fill="none" xmlns="http://www.w3.org/2000/svg">
<path id="vector" fill-rule="evenodd" clip-rule="evenodd" d="M9.48301 13.2682C10.3715 13.306 11.2638 13.2281 12.1367 13.0344C13.3928 12.7545 14.3512 11.7326 14.5466 10.4586C14.9364 7.92592 14.9365 5.34732 14.5466 2.81465C14.3511 1.54105 13.3935 0.519016 12.1361 0.239174C10.6747 -0.0743706 9.16413 -0.0850341 7.70293 0.239174C6.55038 0.495977 5.64785 1.37765 5.35598 2.50555C4.46777 2.46762 3.57583 2.5455 2.70293 2.73917C1.44702 3.01901 0.48799 4.04081 0.292449 5.31465C-0.0974383 7.84732 -0.0974941 10.426 0.292348 12.9587C0.487714 14.2325 1.44547 15.2547 2.70293 15.5346C4.16291 15.8585 5.67676 15.8583 7.13673 15.5344C8.28926 15.2776 9.19121 14.396 9.48301 13.2682ZM7.97413 1.45937C7.34473 1.59961 6.84031 2.05009 6.62248 2.63893C6.79459 2.66798 6.9655 2.70257 7.13612 2.73917C8.39345 3.01902 9.3511 4.04105 9.5466 5.31465C9.88863 7.53645 9.93058 9.79359 9.67254 12.0241C10.407 12.0443 11.1433 11.9743 11.8648 11.8143C12.6192 11.6462 13.1941 11.0326 13.3111 10.2692C13.6817 7.86242 13.6817 5.41165 13.3111 3.00488C13.194 2.24132 12.6202 1.62776 11.8654 1.45957L11.7451 1.43373C10.5009 1.17549 9.21559 1.18398 7.97413 1.45937ZM8.23969 13.0685C8.27134 12.9719 8.29539 12.8719 8.31115 12.7692C8.35551 12.481 8.39457 12.1922 8.42831 11.9028C8.67638 9.77607 8.6373 7.62354 8.31115 5.50488C8.19404 4.74132 7.62024 4.12776 6.86543 3.95957L6.74509 3.93373C5.50091 3.67549 4.21559 3.68398 2.97413 3.95937C2.2198 4.12745 1.645 4.74113 1.5279 5.50458C1.16897 7.83614 1.15773 10.209 1.49423 12.5431L1.5279 12.7689C1.64501 13.5324 2.2188 14.146 2.97362 14.3142C4.2551 14.5985 5.58333 14.5985 6.86482 14.3143C7.49424 14.1741 7.99871 13.7237 8.21656 13.1348C8.22467 13.1129 8.23238 13.0908 8.23969 13.0685Z" fill="var(--fill-0, #1D2539)"/>
</svg>
