<svg width="14.5833" height="16.249" overflow="visible" style="display: block;" viewBox="0 0 14.5833 16.249" fill="none" xmlns="http://www.w3.org/2000/svg">
<path id="Vector" d="M14.3073 2.60312C14.1292 1.22604 12.9937 0.161458 11.6073 0.071875C10.151 -0.0239583 8.67292 -0.0239583 7.21667 0.071875C5.86458 0.159375 4.75313 1.17708 4.53438 2.50625C4.0125 2.51667 3.49167 2.5375 2.97396 2.57187C1.58855 2.66146 0.453125 3.72604 0.275 5.10312C-0.0916667 7.93646 -0.0916667 10.8094 0.275 13.6448C0.453125 15.0219 1.58855 16.0865 2.97396 16.1771C2.97396 16.1771 2.97499 16.1771 2.97603 16.1771C3.70312 16.225 4.43541 16.249 5.16875 16.249C5.90208 16.249 6.63645 16.225 7.36562 16.1771C8.7177 16.0896 9.82812 15.0729 10.0479 13.7427C10.5687 13.7333 11.0896 13.7115 11.6083 13.6771C12.9937 13.5875 14.1292 12.5229 14.3083 11.1427C14.675 8.30937 14.675 5.43646 14.3083 2.60312H14.3073ZM8.825 13.4844C8.72291 14.2698 8.075 14.8781 7.28125 14.9292C5.87917 15.0219 4.45833 15.0219 3.05624 14.9292C3.0552 14.9292 3.05416 14.9292 3.05312 14.9292C2.26353 14.8771 1.61667 14.2698 1.51459 13.4823C1.16146 10.7552 1.16146 7.99062 1.51459 5.26458C1.61667 4.47916 2.26458 3.87083 3.0552 3.81979C4.45729 3.72708 5.87916 3.72708 7.28437 3.81979C8.07499 3.87083 8.72291 4.47916 8.825 5.26458C9.17812 7.99062 9.17812 10.7562 8.825 13.4854V13.4844ZM13.0667 10.9844C12.9646 11.7708 12.3167 12.3781 11.5229 12.4292C11.0812 12.4583 10.6375 12.4771 10.1927 12.4875C10.424 10.0302 10.3812 7.55208 10.0646 5.10312C9.88646 3.72604 8.75103 2.66146 7.36458 2.57187C6.84895 2.5375 6.33125 2.51667 5.8125 2.50625C6.0073 1.84896 6.59584 1.36458 7.29688 1.31875C8.69896 1.22604 10.1208 1.22604 11.526 1.31875C12.3167 1.36979 12.9646 1.97812 13.0667 2.76354C13.4198 5.48958 13.4198 8.2552 13.0667 10.9844Z" fill="var(--fill-0, #1D2539)"/>
</svg>
