<svg width="11.25" height="11.25" overflow="visible" style="display: block;" viewBox="0 0 11.25 11.25" fill="none" xmlns="http://www.w3.org/2000/svg">
<path id="Vector" d="M10.625 5H6.25V0.625C6.25 0.280208 5.96979 0 5.625 0C5.28021 0 5 0.280208 5 0.625V5H0.625C0.280208 5 0 5.28021 0 5.625C0 5.96979 0.280208 6.25 0.625 6.25H5V10.625C5 10.9698 5.28021 11.25 5.625 11.25C5.96979 11.25 6.25 10.9698 6.25 10.625V6.25H10.625C10.9698 6.25 11.25 5.96979 11.25 5.625C11.25 5.28021 10.9698 5 10.625 5Z" fill="var(--fill-0, #1D2539)"/>
</svg>
